<svg width="207" height="251" viewBox="0 0 207 251" fill="none" xmlns="http://www.w3.org/2000/svg">
    <g filter="url(#filter0_d_6_27942)">
        <path d="M8.26746 175.996C8.26746 162.741 19.0126 151.996 32.2675 151.996H74.8963C88.1511 151.996 98.8963 162.741 98.8963 175.996V218.625C98.8963 231.88 88.1511 242.625 74.8963 242.625H32.2674C19.0126 242.625 8.26746 231.88 8.26746 218.625V175.996Z" fill="#4CCE23"/>
    </g>
    <g filter="url(#filter1_d_6_27942)">
        <path d="M80.0874 197.505C80.0874 198.922 79.9697 200.088 79.7343 201.005C79.4983 201.923 79.1452 202.71 78.6738 203.365C78.2025 204.021 76.1308 207.376 72.7056 207.376C72.1285 207.507 68.0452 207.572 67.3654 207.73C67.1553 208.465 66.9595 209.342 66.7764 210.364C66.592 211.387 66.4233 212.449 66.2659 213.55C66.0564 215.175 65.7946 216.802 65.4805 218.426C65.1665 220.051 64.6951 221.545 64.067 222.909C63.6472 223.8 63.2287 224.533 62.8101 225.111C62.3904 225.687 61.9466 226.133 61.4753 226.448C61.0039 226.762 60.5061 226.971 59.983 227.077C59.4588 227.182 58.8571 227.235 58.1768 227.235L55.3497 227.156C53.9878 227.156 53.0846 226.842 52.6403 226.212C52.1947 225.583 51.9725 224.718 51.9725 223.617C51.9725 223.04 52.0242 222.464 52.1298 221.887C52.2337 221.309 52.3652 220.735 52.5226 220.157V220.235C52.5226 220.131 53.7007 215.832 53.7007 215.832C53.8052 215.412 54.3018 213.578 54.4075 213.157C54.5648 212.477 54.7474 211.795 54.9569 211.113C55.1653 210.432 55.3226 209.776 55.4283 209.147C55.4283 209.147 33.3358 215.619 29.9448 208.478C29.4992 207.666 29.0675 206.801 28.6489 205.883C28.2292 204.967 27.8755 204.048 27.5885 203.131C27.3002 202.214 27.1297 201.361 27.0781 200.574C27.0781 200.574 27.0781 197.455 29.6301 192.867C30.7555 190.718 36.7429 179.961 39.6613 174.423C42.2032 168.912 44.4592 167.386 47.4959 167.386C47.9144 167.386 48.2153 167.399 48.399 167.425C48.5816 167.452 48.7521 167.491 48.9094 167.543V167.622H49.4595C50.559 168.094 51.4489 168.802 52.1298 169.745C52.8096 170.689 53.1507 171.843 53.1507 173.206C53.1507 174.045 52.7838 175.12 52.0512 176.43C52.0512 176.43 41.6849 193.628 41.3709 194.204C41.0568 194.782 40.7686 195.437 40.5074 196.171C41.8153 196.171 43.2288 196.132 44.748 196.053C46.2661 195.974 47.7973 195.856 49.3424 195.699C50.8856 195.542 52.3917 195.358 53.8575 195.149C55.3226 194.94 56.6059 194.704 57.7054 194.441C57.9144 193.969 58.0981 193.406 58.2548 192.75C58.4122 192.095 58.5947 191.373 58.8049 190.587C58.8049 190.587 61.9322 177.401 62.0637 176.667C62.194 175.933 62.4685 175.199 62.8882 174.464C62.8882 174.464 64.0153 172.931 66.069 171.908C67.4555 171.253 68.5424 170.925 69.3278 170.925C70.6885 170.925 71.8529 171.278 72.8221 171.987C75.5363 173.788 73.6724 179.393 73.2544 179.969C72.8347 180.547 71.5526 185.842 71.4482 186.418C71.3953 186.575 70.7414 189.42 70.5847 190.233C70.4273 191.047 70.2706 192.002 70.1133 193.103C70.5847 193.103 71.0554 193.052 71.5268 192.946C71.9982 192.841 74.5761 192.462 74.8643 192.435C75.1514 192.409 75.4792 192.395 75.8461 192.395C77.154 192.395 78.1886 192.71 78.9483 193.339C79.7067 193.968 80.0868 195.227 80.0868 197.114L80.0874 197.505Z" fill="white"/>
    </g>
    <g filter="url(#filter2_d_6_27942)">
        <path d="M90.707 176.6C89.0916 163.444 98.4472 151.469 111.603 149.854L153.914 144.659C167.07 143.043 179.045 152.399 180.66 165.555L185.855 207.866C187.471 221.022 178.115 232.997 164.959 234.612L122.648 239.807C109.492 241.422 97.5175 232.067 95.9021 218.911L90.707 176.6Z" fill="#F69B01"/>
    </g>
    <path d="M150.021 189.334C151.045 187.45 151.517 185.246 151.236 182.964C150.567 177.508 145.849 173.513 140.44 173.577L139.779 168.199L134.94 168.793L135.592 174.103L132.299 174.508L131.647 169.197L126.807 169.792L127.459 175.102L119.213 176.115L119.951 182.124L125.709 181.417L128.712 205.876L122.954 206.583L123.692 212.592L131.937 211.58L132.589 216.89L137.43 216.296L136.778 210.985L140.071 210.581L140.723 215.891L145.562 215.297L144.91 209.987L146.944 209.737C152.84 209.013 157.052 203.659 156.332 197.802C155.859 193.942 153.359 190.813 150.021 189.334ZM139.978 179.665C142.538 179.351 144.875 181.164 145.187 183.707C145.499 186.25 143.67 188.575 141.11 188.89L132.892 189.899L131.76 180.674L139.978 179.665ZM146.207 203.727L134.763 205.133L133.63 195.908L141.848 194.899L145.075 194.503C147.635 194.189 149.972 196.002 150.284 198.545C150.596 201.088 148.767 203.413 146.207 203.727Z" fill="white"/>
    <g filter="url(#filter3_d_6_27942)">
        <path d="M5.16755 99.884C2.86588 86.8306 11.5819 74.3828 24.6354 72.0811L66.6166 64.6787C79.6701 62.377 92.1179 71.0931 94.4195 84.1465L101.822 126.128C104.124 139.181 95.4076 151.629 82.3541 153.931L40.3729 161.333C27.3194 163.635 14.8717 154.919 12.57 141.865L5.16755 99.884Z" fill="#E1457C"/>
    </g>
    <g filter="url(#filter4_d_6_27942)">
        <path d="M76.9927 93.7924C77.0316 94.3146 76.9978 94.8751 76.8934 95.474L76.9703 95.4605C76.6544 98.159 75.9864 100.508 74.9679 102.511C73.9482 104.513 72.7056 106.292 71.238 107.844C69.7705 109.398 68.1344 110.822 66.3314 112.118C64.528 113.414 62.6581 114.707 60.7227 115.999C58.7266 117.25 56.7441 118.577 54.7755 119.98C52.8067 121.385 50.9803 123.001 49.2981 124.829C49.2038 124.899 49.0732 125.054 48.905 125.295C48.8625 125.356 48.7762 125.464 48.6454 125.618C48.5143 125.773 48.364 125.972 48.1957 126.212L47.9429 126.574C50.1916 125.86 52.7234 125.255 55.5388 124.758C58.1993 124.289 60.947 124.003 63.7785 123.9C66.6101 123.797 69.4891 123.963 72.4155 124.398C73.2466 124.622 73.8977 125.022 74.3686 125.599C74.8392 126.177 75.1526 126.901 75.3062 127.772C75.487 128.797 75.4537 129.886 75.2091 131.038C74.9638 132.191 74.5843 133.262 74.0734 134.25C73.1526 136.21 71.7956 137.346 70.0046 137.662C68.878 137.861 67.7373 137.824 66.5811 137.553C66.0506 137.541 65.4976 137.545 64.9211 137.568C64.344 137.591 63.9236 137.599 63.6591 137.592L63.736 137.579C63.2663 137.609 62.7993 137.652 62.3338 137.707C61.8685 137.763 54.4963 138.268 50.9962 138.953C49.3632 139.273 47.5782 139.702 45.6583 140.33C43.7373 140.96 38.5141 143.135 38.5141 143.135L38.2071 143.19C36.6198 143.469 35.2704 143.073 34.1582 142.001C33.0456 140.93 32.1444 139.636 31.4552 138.119L31.4686 138.196C31.2335 137.762 31.0467 137.307 30.9109 136.828C30.7734 136.351 30.6602 135.856 30.5697 135.343C30.1452 132.935 30.8405 130.144 32.6555 126.971C33.3869 125.732 34.0793 124.647 34.7326 123.711C35.3857 122.777 36.0293 121.937 36.6629 121.192C37.2959 120.446 37.9391 119.752 38.5908 119.108C39.242 118.466 39.9795 117.781 40.8017 117.054C41.1566 116.675 41.4725 116.369 41.7477 116.134C42.0232 115.901 45.51 112.71 46.6475 111.823C47.7835 110.936 50.4162 109.177 50.4162 109.177C50.7893 108.9 51.15 108.625 51.4978 108.352C51.8456 108.08 52.6698 107.591 52.6698 107.591C52.763 107.523 52.9391 107.399 53.1982 107.221C53.4563 107.044 53.6324 106.92 53.726 106.85C54.0565 106.634 54.3994 106.402 54.7509 106.154C55.1033 105.908 57.3428 104.469 57.3428 104.469L57.9026 104.053C58.0884 103.915 58.2644 103.791 58.4305 103.682C58.5959 103.574 58.7722 103.451 58.9589 103.312C60.3099 102.598 61.5543 101.798 62.6913 100.91C63.8273 100.024 64.3146 99.1179 64.152 98.1958L64.0978 97.8884C63.9223 97.497 63.5943 97.2778 63.1108 97.2304C62.6275 97.1841 62.1042 97.2097 61.5418 97.3089C60.9783 97.4082 60.3992 97.5637 59.8032 97.7742C59.2074 97.9859 58.6113 98.1959 58.0147 98.4065C57.7168 98.5124 57.3814 98.5467 57.0752 98.691C52.6587 100.773 49.1543 103.376 47.9352 104.543C47.841 104.613 47.7614 104.68 47.6934 104.744C47.6257 104.81 47.545 104.877 47.4522 104.945C44.8573 106.994 43.7143 108.366 43.4826 108.696C43.2506 109.028 43.0336 109.37 42.8325 109.722C42.7474 109.844 42.6885 109.96 42.656 110.07C42.3127 110.818 41.9182 111.495 41.4708 112.102C41.0234 112.709 40.2362 113.112 39.1114 113.311C38.5989 113.401 37.9966 113.428 37.305 113.392C36.682 113.45 36.0699 113.345 35.4695 113.082C34.8687 112.818 34.318 112.466 33.8191 112.025C33.3185 111.586 32.9043 111.104 32.5746 110.58C32.2446 110.058 32.0391 109.565 31.9579 109.104C31.7592 107.977 32.159 106.506 33.1591 104.691C34.1577 102.879 35.4329 101.055 36.9838 99.2224C38.5337 97.3916 40.1841 95.7528 41.9352 94.3078C52.5446 85.485 62.4676 84.3073 63.799 84.0726C66.3391 83.6247 69.5843 84.11 70.2614 84.3596C71.9591 85.0111 73.3873 86.0016 74.545 87.3288C75.7025 88.658 76.4536 90.2951 76.7968 92.2416C76.889 92.7544 76.953 93.2716 76.9927 93.7924Z" fill="white"/>
    </g>
    <g filter="url(#filter5_d_6_27942)">
        <path d="M87.7821 91.7794C87.7821 78.5246 98.5273 67.7795 111.782 67.7795H154.411C167.666 67.7795 178.411 78.5246 178.411 91.7795V134.408C178.411 147.663 167.666 158.408 154.411 158.408H111.782C98.5273 158.408 87.7821 147.663 87.7821 134.408V91.7794Z" fill="#2E8CDA"/>
    </g>
    <g filter="url(#filter6_d_6_27942)">
        <path d="M150.622 127.54C147.987 130.843 144.514 133.719 140.203 136.168H140.283C134.961 139.311 129.905 140.881 125.115 140.881C120.59 140.881 116.409 139.66 113.163 136.624C110.555 134.494 109.054 131.842 108.069 129.257C107.084 126.674 106.593 123.759 106.593 120.509C106.593 119.445 106.645 118.38 106.753 117.314C106.859 116.25 106.992 115.185 107.151 114.119C108.109 108.474 109.892 103.614 112.501 99.5392C115.108 95.4647 118.887 91.9375 123.837 88.954C126.125 87.5692 128.348 86.5448 130.503 85.8783C132.659 85.2124 134.827 84.8795 137.01 84.8795C139.297 84.8795 141.533 85.2662 143.716 86.0377C145.897 86.8105 148.106 87.8887 150.342 89.2729L152.417 90.6315C153.641 91.4843 154.718 92.3627 155.65 93.2674C156.58 94.1733 157.419 95.4782 158.165 97.1819C159.123 99.579 159.602 101.869 159.602 104.052C159.602 105.704 159.376 107.462 158.924 109.325C158.472 111.19 157.846 113.187 157.048 115.317C155.398 120.164 153.256 124.238 150.622 127.54ZM148.146 111.522C148.333 110.751 148.426 109.964 148.426 109.166C148.426 107.622 148.146 106.184 147.588 104.851C147.029 103.521 146.27 102.349 145.312 101.336C144.354 100.325 143.209 99.4867 141.879 98.8196C140.548 98.1544 139.137 97.7152 137.648 97.502C137.275 97.4494 136.89 97.4097 136.49 97.3822C136.091 97.356 135.758 97.3426 135.492 97.3426C133.842 97.3426 132.219 97.596 130.621 98.1012C129.025 98.6083 127.508 99.3395 126.071 100.299C124.633 101.257 123.33 102.429 122.159 103.814C120.988 105.2 120.03 106.77 119.285 108.527C118.22 111.244 117.689 113.587 117.689 115.558C117.689 118.487 118.912 121.363 121.361 124.186H121.281C122.239 125.198 123.264 125.904 124.355 126.303C126.678 127.528 129.664 127.142 129.664 127.142C131.686 127.142 133.548 126.743 135.252 125.944C136.955 125.144 138.791 123.92 140.76 122.268C142.409 120.938 143.741 119.699 144.752 118.553C145.763 117.409 146.641 115.905 147.387 114.04V113.96C147.707 113.108 147.959 112.295 148.146 111.522Z" fill="white"/>
    </g>
    <path d="M116.321 34.4544C116.321 34.4544 123.73 23.9643 125.68 16.7561C125.68 16.7561 128.738 31.3434 132.423 35.529C136.107 39.7145 124.86 43.5829 124.86 43.5829L116.389 38.6772" fill="#C67409"/>
    <path d="M151.408 46.7829L151.381 46.7774C150.595 46.6392 134.616 43.7512 139.837 40.3333C145.187 36.8333 156.678 19.8401 156.678 19.8401C156.678 19.8401 160.846 39.9258 164.464 45.1969C167.923 50.2378 152.777 47.0817 151.408 46.7829Z" fill="#C67409"/>
    <path d="M188.548 48.7183C188.548 48.7183 185.683 36.1992 186.62 28.7909C186.62 28.7909 178.246 41.1205 173.247 43.5913C168.249 46.0621 177.18 53.9155 177.18 53.9155L186.88 52.5982" fill="#C67409"/>
    <path d="M152.085 43.3554L146.96 69.3081L182.199 76.2673L198.143 35.1116C198.143 35.1116 198.142 35.1169 198.135 35.1216C197.989 35.3433 195.343 39.2065 191.951 42.5585C191.949 42.5696 191.942 42.5739 191.929 42.5828C188.564 45.9117 184.468 48.7325 181.375 46.9384C181.141 46.8009 180.911 46.6363 180.694 46.4396C175.144 41.5605 175.907 19.8946 175.907 19.8946C175.907 19.8946 161.951 45.3039 152.085 43.3554Z" fill="#FFAC27"/>
    <path d="M180.694 46.4396C175.144 41.5605 175.907 19.8946 175.907 19.8946C167.263 52.1665 176.623 48.9919 180.694 46.4396Z" fill="#EF9411"/>
    <path d="M160.654 72.0124L182.199 76.2673L198.143 35.1116C198.143 35.1116 198.142 35.1169 198.136 35.1216C197.977 35.3178 195.545 38.3305 191.951 42.5586C191.949 42.5696 191.942 42.5739 191.929 42.5828C183.137 52.9406 167.446 70.5437 161.353 71.8149C161.098 71.8666 160.863 71.934 160.654 72.0124Z" fill="#EF9411"/>
    <path d="M188.389 63.3917L149.64 55.7392L150.187 52.9677L188.937 60.6202C189.691 60.7692 190.183 61.5022 190.034 62.2569L190.026 62.2946C189.877 63.0502 189.144 63.5409 188.389 63.3917Z" fill="#FFD394"/>
    <path d="M183.435 76.9506L146.876 69.7309L147.424 66.9593L183.982 74.179C184.737 74.3281 185.228 75.0609 185.079 75.8157L185.071 75.8533C184.923 76.6086 184.19 77.0997 183.435 76.9506Z" fill="#FFD394"/>
    <path d="M155.006 62.7849C154.828 63.6885 155.024 64.5689 155.492 65.2815C155.965 66.0234 156.737 66.5801 157.668 66.7639C159.502 67.1261 161.285 65.9307 161.647 64.0969C161.894 62.8485 161.418 61.6283 160.512 60.8577C160.088 60.5008 159.565 60.2382 158.979 60.1225C157.151 59.7611 155.368 60.9506 155.006 62.7849Z" fill="#F2D6B6"/>
    <path d="M155.006 62.7849C154.828 63.6885 155.024 64.5689 155.492 65.2815C155.916 65.6384 156.429 65.8935 157.009 66.0081C158.844 66.3704 160.62 65.1797 160.983 63.3454C161.159 62.4529 160.964 61.5667 160.513 60.8578C160.088 60.5009 159.565 60.2383 158.979 60.1226C157.151 59.7611 155.368 60.9506 155.006 62.7849Z" fill="#FFECD2"/>
    <path d="M156.391 61.6808C156.269 62.3008 156.672 62.903 157.293 63.0256C157.913 63.148 158.515 62.7448 158.637 62.1244C158.76 61.5039 158.357 60.9026 157.736 60.7801C157.116 60.6575 156.514 61.0608 156.391 61.6808Z" fill="#FFFAF5"/>
    <path d="M194.32 32.7897C194.062 34.0948 194.345 35.3668 195.021 36.3958C195.705 37.4679 196.819 38.2714 198.164 38.537C200.813 39.0602 203.389 37.3338 203.912 34.6846C204.269 32.8814 203.582 31.1189 202.273 30.0058C201.659 29.4901 200.905 29.1113 200.059 28.9442C197.417 28.4217 194.843 30.14 194.32 32.7897Z" fill="#F2D6B6"/>
    <path d="M194.32 32.7897C194.062 34.0948 194.345 35.3667 195.021 36.3958C195.634 36.9115 196.375 37.2792 197.213 37.4448C199.862 37.968 202.429 36.2481 202.952 33.5989C203.207 32.3097 202.926 31.0298 202.273 30.0054C201.66 29.4897 200.905 29.1109 200.059 28.9438C197.417 28.4217 194.843 30.14 194.32 32.7897Z" fill="#FFECD2"/>
    <path d="M196.32 31.1952C196.144 32.0908 196.726 32.9605 197.622 33.1374C198.517 33.3143 199.387 32.7318 199.564 31.8357C199.741 30.9401 199.158 30.0703 198.262 29.8934C197.367 29.7165 196.497 30.2995 196.32 31.1952Z" fill="#FFFAF5"/>
    <path d="M172.146 17.1477C171.889 18.4528 172.172 19.7247 172.847 20.7538C173.531 21.8254 174.646 22.629 175.991 22.8945C178.64 23.4177 181.216 21.6914 181.739 19.0421C182.095 17.2389 181.408 15.4764 180.099 14.3634C179.486 13.8477 178.731 13.4688 177.885 13.3017C175.244 12.7797 172.67 14.4984 172.146 17.1477Z" fill="#F2D6B6"/>
    <path d="M172.146 17.1477C171.889 18.4528 172.172 19.7247 172.847 20.7537C173.461 21.2694 174.201 21.6372 175.04 21.8028C177.689 22.3259 180.256 20.6061 180.779 17.9564C181.034 16.6673 180.752 15.3874 180.1 14.363C179.487 13.8473 178.732 13.4684 177.886 13.3013C175.244 12.7796 172.67 14.4984 172.146 17.1477Z" fill="#FFECD2"/>
    <path d="M174.147 15.5532C173.97 16.4488 174.553 17.318 175.449 17.495C176.344 17.6719 177.214 17.0894 177.391 16.1938C177.568 15.2982 176.985 14.4289 176.089 14.2519C175.193 14.0751 174.324 14.6575 174.147 15.5532Z" fill="#FFFAF5"/>
    <path d="M182.591 27.963C182.38 29.0297 182.611 30.0695 183.164 30.9108C183.723 31.7869 184.634 32.4439 185.734 32.6609C187.899 33.0886 190.005 31.6774 190.433 29.5121C190.724 28.0382 190.162 26.5974 189.092 25.6877C188.591 25.2664 187.974 24.9563 187.283 24.8197C185.123 24.3932 183.019 25.7977 182.591 27.963Z" fill="#D9C0A3"/>
    <path d="M182.591 27.963C182.38 29.0297 182.611 30.0695 183.164 30.9107C183.665 31.332 184.271 31.633 184.956 31.7683C187.122 32.196 189.219 30.7901 189.647 28.6244C189.855 27.5705 189.625 26.5245 189.092 25.6871C188.591 25.2659 187.974 24.9557 187.282 24.8191C185.123 24.3931 183.019 25.7977 182.591 27.963Z" fill="#E6D5BE"/>
    <path d="M184.226 26.6601C184.082 27.3922 184.558 28.1028 185.29 28.2474C186.022 28.392 186.733 27.9158 186.877 27.1837C187.022 26.4516 186.546 25.741 185.814 25.5964C185.082 25.4518 184.371 25.9276 184.226 26.6601Z" fill="#E6E2DD"/>
    <path d="M160.345 19.4961C160.134 20.5628 159.525 21.4366 158.694 22.0046C157.844 22.6025 156.751 22.8637 155.652 22.6467C153.486 22.219 152.075 20.1133 152.503 17.948C152.794 16.474 153.861 15.355 155.197 14.9202C155.82 14.721 156.509 14.6687 157.201 14.8053C159.36 15.2313 160.772 17.3304 160.345 19.4961Z" fill="#D9C0A3"/>
    <path d="M160.345 19.496C160.134 20.5627 159.525 21.4366 158.694 22.0046C158.07 22.2037 157.396 22.252 156.711 22.1167C154.545 21.6889 153.139 19.5911 153.567 17.4254C153.775 16.3715 154.385 15.4915 155.197 14.9197C155.82 14.7205 156.509 14.6682 157.201 14.8048C159.36 15.2313 160.772 17.3303 160.345 19.496Z" fill="#E6D5BE"/>
    <path d="M159.328 17.6689C159.183 18.401 158.473 18.8772 157.74 18.7326C157.008 18.5881 156.532 17.8775 156.677 17.1454C156.821 16.4133 157.532 15.937 158.264 16.0816C158.996 16.2261 159.472 16.9368 159.328 17.6689Z" fill="#E6E2DD"/>
    <path d="M164.831 64.7252C164.653 65.6288 164.849 66.5092 165.317 67.2218C165.79 67.9637 166.562 68.5204 167.493 68.7042C169.327 69.0664 171.11 67.871 171.472 66.0372C171.719 64.7888 171.243 63.5686 170.337 62.798C169.913 62.4411 169.39 62.1785 168.804 62.0628C166.976 61.7014 165.194 62.8909 164.831 64.7252Z" fill="#F2D6B6"/>
    <path d="M164.831 64.7252C164.653 65.6288 164.849 66.5092 165.317 67.2218C165.741 67.5787 166.254 67.8338 166.834 67.9484C168.669 68.3107 170.445 67.12 170.808 65.2857C170.984 64.3932 170.789 63.507 170.338 62.7981C169.913 62.4412 169.39 62.1786 168.804 62.0629C166.976 61.7014 165.194 62.8909 164.831 64.7252Z" fill="#FFECD2"/>
    <path d="M166.217 63.6211C166.094 64.2411 166.497 64.8433 167.118 64.9659C167.738 65.0883 168.34 64.6851 168.463 64.0647C168.585 63.4442 168.182 62.8429 167.561 62.7204C166.941 62.5978 166.339 63.0011 166.217 63.6211Z" fill="#FFFAF5"/>
    <path d="M174.656 66.6655C174.478 67.5691 174.674 68.4495 175.142 69.1622C175.615 69.904 176.387 70.4607 177.318 70.6445C179.152 71.0067 180.936 69.8114 181.298 67.9776C181.544 66.7292 181.068 65.509 180.163 64.7384C179.738 64.3815 179.215 64.1189 178.629 64.0032C176.801 63.6417 175.018 64.8312 174.656 66.6655Z" fill="#F2D6B6"/>
    <path d="M174.656 66.6655C174.478 67.5691 174.674 68.4495 175.142 69.1622C175.566 69.519 176.079 69.7741 176.659 69.8887C178.494 70.251 180.27 69.0603 180.633 67.226C180.809 66.3335 180.614 65.4473 180.163 64.7384C179.738 64.3815 179.215 64.1189 178.629 64.0032C176.801 63.6417 175.018 64.8312 174.656 66.6655Z" fill="#FFECD2"/>
    <path d="M176.041 65.5614C175.919 66.1814 176.322 66.7837 176.943 66.9062C177.563 67.0286 178.164 66.6253 178.287 66.0049C178.41 65.3845 178.006 64.7831 177.386 64.6607C176.766 64.5382 176.164 64.9414 176.041 65.5614Z" fill="#FFFAF5"/>
    <path d="M170.555 31.4572C170.555 31.4572 160.601 44.8775 153.357 43.9431C153.357 43.9431 168.04 46.5555 170.555 31.4572Z" fill="#FFC571"/>
    <path d="M152.085 43.3554L146.96 69.3081L111.721 62.3489L112.619 18.2218C112.619 18.2218 112.618 18.2271 112.622 18.2339C112.673 18.4944 113.652 23.0735 115.516 27.4636C115.513 27.4747 115.518 27.481 115.527 27.4943C117.374 31.8526 120.09 36.0186 123.632 35.5349C123.901 35.4969 124.176 35.4319 124.452 35.3326C131.44 32.9296 138.971 12.6003 138.971 12.6003C138.971 12.6003 142.219 41.4069 152.085 43.3554Z" fill="#FFAC27"/>
    <path d="M124.452 35.3326C131.44 32.9296 138.971 12.6003 138.971 12.6003C134.697 45.7351 127.247 39.2408 124.452 35.3326Z" fill="#EF9411"/>
    <path d="M133.266 66.6037L111.721 62.3489L112.619 18.2218C112.619 18.2218 112.618 18.2271 112.622 18.2339C112.694 18.4755 113.799 22.1867 115.515 27.4636C115.513 27.4747 115.518 27.481 115.526 27.4943C119.721 40.4169 127.542 62.6631 132.694 66.1552C132.911 66.3002 133.103 66.4517 133.266 66.6037Z" fill="#EF9411"/>
    <path d="M110.89 48.0867L149.64 55.7392L150.187 52.9677L111.438 45.3152C110.682 45.166 109.95 45.6573 109.801 46.412L109.793 46.4497C109.644 47.2052 110.135 47.9376 110.89 48.0867Z" fill="#FFD394"/>
    <path d="M114.404 46.4918C137.822 50.7998 161.413 55.6322 184.624 60.9285C161.202 56.6377 137.62 51.7709 114.404 46.4918Z" fill="#FFE8CA"/>
    <path d="M110.319 62.5111L146.877 69.7309L147.424 66.9593L110.866 59.7396C110.111 59.5904 109.378 60.0817 109.229 60.8364L109.222 60.8741C109.072 61.6291 109.563 62.362 110.319 62.5111Z" fill="#FFD394"/>
    <path d="M111.641 60.4829C135.059 64.791 158.65 69.6229 181.861 74.9196C158.439 70.6288 134.857 65.7625 111.641 60.4829Z" fill="#FFE8CA"/>
    <path d="M151.823 62.1562C151.644 63.0598 151.128 63.7996 150.424 64.2809C149.704 64.7869 148.779 65.0084 147.848 64.8246C146.014 64.4624 144.819 62.6789 145.181 60.845C145.428 59.5967 146.332 58.6489 147.463 58.2806C147.991 58.1119 148.574 58.0678 149.16 58.1835C150.989 58.5441 152.185 60.3219 151.823 62.1562Z" fill="#F2D6B6"/>
    <path d="M151.823 62.1562C151.644 63.0598 151.128 63.7996 150.424 64.2809C149.896 64.4496 149.325 64.4905 148.744 64.3759C146.91 64.0137 145.719 62.2369 146.082 60.4027C146.258 59.5101 146.775 58.7645 147.462 58.2805C147.99 58.1118 148.574 58.0677 149.16 58.1834C150.989 58.5441 152.185 60.3219 151.823 62.1562Z" fill="#FFECD2"/>
    <path d="M149.617 61.5092C150.237 61.6316 150.838 61.2283 150.961 60.6084C151.083 59.9884 150.68 59.3866 150.06 59.2641C149.44 59.1417 148.838 59.545 148.716 60.165C148.593 60.7849 148.997 61.3868 149.617 61.5092Z" fill="#FFFAF5"/>
    <path d="M141.998 60.2159C141.819 61.1195 141.303 61.8593 140.6 62.3406C139.879 62.8466 138.954 63.0681 138.023 62.8843C136.189 62.5221 134.994 60.7386 135.356 58.9047C135.603 57.6564 136.507 56.7086 137.638 56.3403C138.166 56.1716 138.749 56.1275 139.335 56.2432C141.163 56.6037 142.36 58.3816 141.998 60.2159Z" fill="#F2D6B6"/>
    <path d="M141.998 60.2159C141.819 61.1195 141.303 61.8593 140.599 62.3406C140.071 62.5093 139.5 62.5502 138.919 62.4356C137.085 62.0734 135.894 60.2966 136.257 58.4624C136.433 57.5698 136.95 56.8242 137.637 56.3402C138.166 56.1715 138.749 56.1274 139.335 56.2431C141.163 56.6037 142.36 58.3816 141.998 60.2159Z" fill="#FFECD2"/>
    <path d="M139.792 59.5689C140.412 59.6913 141.014 59.288 141.136 58.6681C141.258 58.0481 140.855 57.4463 140.235 57.3238C139.615 57.2014 139.013 57.6047 138.891 58.2247C138.768 58.8446 139.172 59.4465 139.792 59.5689Z" fill="#FFFAF5"/>
    <path d="M117.038 17.5276C116.78 18.8327 116.035 19.9016 115.019 20.5965C113.979 21.3281 112.642 21.6474 111.298 21.382C108.648 20.8588 106.922 18.2828 107.445 15.6336C107.801 13.8304 109.107 12.4615 110.74 11.9294C111.504 11.6856 112.346 11.6221 113.192 11.7892C115.833 12.3099 117.561 14.8779 117.038 17.5276Z" fill="#F2D6B6"/>
    <path d="M117.038 17.5276C116.78 18.8327 116.035 19.9016 115.019 20.5964C114.256 20.8403 113.431 20.8989 112.592 20.7333C109.943 20.2101 108.223 17.6437 108.746 14.9945C109.001 13.7053 109.748 12.6285 110.741 11.929C111.504 11.6851 112.346 11.6217 113.192 11.7887C115.833 12.3099 117.561 14.8779 117.038 17.5276Z" fill="#FFECD2"/>
    <path d="M115.794 15.2922C115.617 16.1879 114.748 16.7709 113.851 16.5939C112.956 16.417 112.373 15.5477 112.55 14.6516C112.727 13.7559 113.596 13.173 114.492 13.3499C115.388 13.5268 115.971 14.3966 115.794 15.2922Z" fill="#FFFAF5"/>
    <path d="M143.493 11.489C143.235 12.7942 142.49 13.863 141.474 14.5579C140.434 15.2891 139.097 15.6085 137.753 15.343C135.103 14.8198 133.377 12.2438 133.9 9.59461C134.256 7.79137 135.562 6.42241 137.196 5.89045C137.958 5.64649 138.801 5.58315 139.647 5.75022C142.288 6.2714 144.016 8.8398 143.493 11.489Z" fill="#F2D6B6"/>
    <path d="M143.493 11.489C143.235 12.7941 142.49 13.863 141.474 14.5579C140.711 14.8019 139.886 14.8604 139.047 14.6948C136.398 14.1716 134.678 11.6051 135.201 8.95544C135.456 7.66627 136.202 6.58942 137.195 5.8899C137.958 5.64594 138.801 5.58259 139.647 5.74967C142.288 6.27137 144.016 8.83978 143.493 11.489Z" fill="#FFECD2"/>
    <path d="M142.248 9.2536C142.071 10.1492 141.202 10.7318 140.307 10.5549C139.411 10.378 138.828 9.50868 139.005 8.61304C139.182 7.71741 140.051 7.13486 140.947 7.31182C141.843 7.4887 142.425 8.35796 142.248 9.2536Z" fill="#FFFAF5"/>
    <path d="M129.721 17.5219C129.51 18.5886 128.901 19.4624 128.07 20.0305C127.22 20.6283 126.127 20.8895 125.028 20.6725C122.863 20.2448 121.452 18.1391 121.879 15.9738C122.17 14.4998 123.238 13.3808 124.573 12.946C125.197 12.7468 125.885 12.6945 126.577 12.8311C128.736 13.2576 130.148 15.3566 129.721 17.5219Z" fill="#D9C0A3"/>
    <path d="M129.721 17.5219C129.51 18.5886 128.901 19.4624 128.07 20.0304C127.447 20.2296 126.772 20.2778 126.087 20.1425C123.921 19.7148 122.515 17.617 122.943 15.4512C123.151 14.3974 123.762 13.5174 124.573 12.9455C125.197 12.7463 125.885 12.694 126.577 12.8306C128.736 13.2576 130.149 15.3566 129.721 17.5219Z" fill="#E6D5BE"/>
    <path d="M128.704 15.6951C128.559 16.4272 127.848 16.9034 127.116 16.7588C126.384 16.6143 125.908 15.9037 126.053 15.1716C126.197 14.4395 126.908 13.9632 127.64 14.1078C128.372 14.252 128.848 14.9626 128.704 15.6951Z" fill="#E6E2DD"/>
    <path d="M132.173 58.2756C131.994 59.1792 131.478 59.919 130.775 60.4002C130.054 60.9063 129.129 61.1278 128.198 60.944C126.364 60.5818 125.169 58.7983 125.531 56.9644C125.778 55.716 126.682 54.7683 127.813 54.4C128.341 54.2313 128.924 54.1872 129.51 54.3029C131.338 54.6634 132.535 56.4413 132.173 58.2756Z" fill="#F2D6B6"/>
    <path d="M132.173 58.2756C131.994 59.1792 131.478 59.919 130.775 60.4003C130.246 60.569 129.675 60.61 129.094 60.4953C127.26 60.1331 126.07 58.3563 126.432 56.5221C126.608 55.6295 127.125 54.8839 127.812 54.3999C128.341 54.2312 128.924 54.1871 129.51 54.3028C131.338 54.6634 132.535 56.4413 132.173 58.2756Z" fill="#FFECD2"/>
    <path d="M129.966 57.6285C130.586 57.751 131.188 57.3476 131.311 56.7277C131.433 56.1077 131.03 55.5059 130.41 55.3834C129.79 55.261 129.188 55.6643 129.066 56.2843C128.943 56.9043 129.346 57.5061 129.966 57.6285Z" fill="#FFFAF5"/>
    <path d="M122.347 56.3352C122.169 57.2388 121.653 57.9786 120.949 58.4599C120.229 58.9659 119.303 59.1874 118.373 59.0037C116.539 58.6414 115.344 56.8579 115.706 55.0241C115.952 53.7757 116.856 52.8279 117.987 52.4596C118.516 52.2909 119.099 52.2468 119.685 52.3625C121.513 52.7231 122.709 54.5009 122.347 56.3352Z" fill="#F2D6B6"/>
    <path d="M122.347 56.3352C122.169 57.2388 121.653 57.9786 120.949 58.4599C120.421 58.6286 119.85 58.6696 119.269 58.5549C117.435 58.1927 116.244 56.4159 116.606 54.5817C116.783 53.6891 117.3 52.9436 117.987 52.4595C118.515 52.2908 119.098 52.2467 119.684 52.3624C121.513 52.7231 122.709 54.5009 122.347 56.3352Z" fill="#FFECD2"/>
    <path d="M120.141 55.6887C120.762 55.8112 121.364 55.4077 121.486 54.7875C121.609 54.1673 121.205 53.5652 120.585 53.4427C119.965 53.3202 119.363 53.7237 119.24 54.3439C119.118 54.9641 119.521 55.5662 120.141 55.6887Z" fill="#FFFAF5"/>
    <path d="M139.525 25.3293C139.525 25.3293 143.63 41.5258 150.686 43.4157C150.686 43.4157 136.112 40.2501 139.525 25.3293Z" fill="#FFC571"/>
    <defs>
        <filter id="filter0_d_6_27942" x="4.26746" y="151.996" width="98.6288" height="98.6288" filterUnits="userSpaceOnUse" color-interpolation-filters="sRGB">
            <feFlood flood-opacity="0" result="BackgroundImageFix"/>
            <feColorMatrix in="SourceAlpha" type="matrix" values="0 0 0 0 0 0 0 0 0 0 0 0 0 0 0 0 0 0 127 0" result="hardAlpha"/>
            <feOffset dy="4"/>
            <feGaussianBlur stdDeviation="2"/>
            <feComposite in2="hardAlpha" operator="out"/>
            <feColorMatrix type="matrix" values="0 0 0 0 0 0 0 0 0 0 0 0 0 0 0 0 0 0 0.25 0"/>
            <feBlend mode="normal" in2="BackgroundImageFix" result="effect1_dropShadow_6_27942"/>
            <feBlend mode="normal" in="SourceGraphic" in2="effect1_dropShadow_6_27942" result="shape"/>
        </filter>
        <filter id="filter1_d_6_27942" x="23.0781" y="167.386" width="61.0093" height="71.8492" filterUnits="userSpaceOnUse" color-interpolation-filters="sRGB">
            <feFlood flood-opacity="0" result="BackgroundImageFix"/>
            <feColorMatrix in="SourceAlpha" type="matrix" values="0 0 0 0 0 0 0 0 0 0 0 0 0 0 0 0 0 0 127 0" result="hardAlpha"/>
            <feOffset dy="8"/>
            <feGaussianBlur stdDeviation="2"/>
            <feComposite in2="hardAlpha" operator="out"/>
            <feColorMatrix type="matrix" values="0 0 0 0 0 0 0 0 0 0 0 0 0 0 0 0 0 0 0.25 0"/>
            <feBlend mode="normal" in2="BackgroundImageFix" result="effect1_dropShadow_6_27942"/>
            <feBlend mode="normal" in="SourceGraphic" in2="effect1_dropShadow_6_27942" result="shape"/>
        </filter>
        <filter id="filter2_d_6_27942" x="86.5256" y="144.477" width="103.511" height="103.511" filterUnits="userSpaceOnUse" color-interpolation-filters="sRGB">
            <feFlood flood-opacity="0" result="BackgroundImageFix"/>
            <feColorMatrix in="SourceAlpha" type="matrix" values="0 0 0 0 0 0 0 0 0 0 0 0 0 0 0 0 0 0 127 0" result="hardAlpha"/>
            <feOffset dy="4"/>
            <feGaussianBlur stdDeviation="2"/>
            <feComposite in2="hardAlpha" operator="out"/>
            <feColorMatrix type="matrix" values="0 0 0 0 0 0 0 0 0 0 0 0 0 0 0 0 0 0 0.25 0"/>
            <feBlend mode="normal" in2="BackgroundImageFix" result="effect1_dropShadow_6_27942"/>
            <feBlend mode="normal" in="SourceGraphic" in2="effect1_dropShadow_6_27942" result="shape"/>
        </filter>
        <filter id="filter3_d_6_27942" x="0.79895" y="64.3101" width="105.392" height="105.392" filterUnits="userSpaceOnUse" color-interpolation-filters="sRGB">
            <feFlood flood-opacity="0" result="BackgroundImageFix"/>
            <feColorMatrix in="SourceAlpha" type="matrix" values="0 0 0 0 0 0 0 0 0 0 0 0 0 0 0 0 0 0 127 0" result="hardAlpha"/>
            <feOffset dy="4"/>
            <feGaussianBlur stdDeviation="2"/>
            <feComposite in2="hardAlpha" operator="out"/>
            <feColorMatrix type="matrix" values="0 0 0 0 0 0 0 0 0 0 0 0 0 0 0 0 0 0 0.25 0"/>
            <feBlend mode="normal" in2="BackgroundImageFix" result="effect1_dropShadow_6_27942"/>
            <feBlend mode="normal" in="SourceGraphic" in2="effect1_dropShadow_6_27942" result="shape"/>
        </filter>
        <filter id="filter4_d_6_27942" x="26.449" y="83.8898" width="54.5593" height="71.3867" filterUnits="userSpaceOnUse" color-interpolation-filters="sRGB">
            <feFlood flood-opacity="0" result="BackgroundImageFix"/>
            <feColorMatrix in="SourceAlpha" type="matrix" values="0 0 0 0 0 0 0 0 0 0 0 0 0 0 0 0 0 0 127 0" result="hardAlpha"/>
            <feOffset dy="8"/>
            <feGaussianBlur stdDeviation="2"/>
            <feComposite in2="hardAlpha" operator="out"/>
            <feColorMatrix type="matrix" values="0 0 0 0 0 0 0 0 0 0 0 0 0 0 0 0 0 0 0.25 0"/>
            <feBlend mode="normal" in2="BackgroundImageFix" result="effect1_dropShadow_6_27942"/>
            <feBlend mode="normal" in="SourceGraphic" in2="effect1_dropShadow_6_27942" result="shape"/>
        </filter>
        <filter id="filter5_d_6_27942" x="83.7821" y="67.7795" width="98.6288" height="98.6288" filterUnits="userSpaceOnUse" color-interpolation-filters="sRGB">
            <feFlood flood-opacity="0" result="BackgroundImageFix"/>
            <feColorMatrix in="SourceAlpha" type="matrix" values="0 0 0 0 0 0 0 0 0 0 0 0 0 0 0 0 0 0 127 0" result="hardAlpha"/>
            <feOffset dy="4"/>
            <feGaussianBlur stdDeviation="2"/>
            <feComposite in2="hardAlpha" operator="out"/>
            <feColorMatrix type="matrix" values="0 0 0 0 0 0 0 0 0 0 0 0 0 0 0 0 0 0 0.25 0"/>
            <feBlend mode="normal" in2="BackgroundImageFix" result="effect1_dropShadow_6_27942"/>
            <feBlend mode="normal" in="SourceGraphic" in2="effect1_dropShadow_6_27942" result="shape"/>
        </filter>
        <filter id="filter6_d_6_27942" x="102.593" y="84.8795" width="61.0093" height="68.0018" filterUnits="userSpaceOnUse" color-interpolation-filters="sRGB">
            <feFlood flood-opacity="0" result="BackgroundImageFix"/>
            <feColorMatrix in="SourceAlpha" type="matrix" values="0 0 0 0 0 0 0 0 0 0 0 0 0 0 0 0 0 0 127 0" result="hardAlpha"/>
            <feOffset dy="8"/>
            <feGaussianBlur stdDeviation="2"/>
            <feComposite in2="hardAlpha" operator="out"/>
            <feColorMatrix type="matrix" values="0 0 0 0 0 0 0 0 0 0 0 0 0 0 0 0 0 0 0.25 0"/>
            <feBlend mode="normal" in2="BackgroundImageFix" result="effect1_dropShadow_6_27942"/>
            <feBlend mode="normal" in="SourceGraphic" in2="effect1_dropShadow_6_27942" result="shape"/>
        </filter>
    </defs>
</svg>
