<svg width="42" height="42" viewBox="0 0 42 42" fill="none" xmlns="http://www.w3.org/2000/svg">
    <path d="M27.0439 39.2457H14.5433C7.80442 39.2457 2.34143 33.7827 2.34143 27.0438V20.7935C2.34143 10.6027 10.6028 2.34137 20.7936 2.34137C30.9844 2.34137 39.2457 10.6027 39.2457 20.7935V27.0438C39.2457 33.7827 33.7827 39.2457 27.0439 39.2457Z" fill="url(#paint0_linear_26_7249)"/>
    <path opacity="0.5" d="M20.7936 3.51205C25.4096 3.51205 29.7495 5.30963 33.0135 8.57364C36.2775 11.8377 38.0751 16.1774 38.0751 20.7935V27.0438C38.0751 33.1264 33.1264 38.075 27.0439 38.075H14.5433C8.46074 38.075 3.51211 33.1264 3.51211 27.0438V20.7935C3.51211 16.1775 5.3097 11.8378 8.57371 8.57379C11.8377 5.30978 16.1776 3.51205 20.7936 3.51205ZM20.7936 2.34137C10.6028 2.34137 2.34143 10.6027 2.34143 20.7935V27.0438C2.34143 33.7827 7.80442 39.2457 14.5433 39.2457H27.0439C33.7827 39.2457 39.2457 33.7827 39.2457 27.0438V20.7935C39.2457 10.6027 30.9844 2.34137 20.7936 2.34137Z" fill="white"/>
    <path d="M20.7935 2.34137C30.9843 2.34137 39.2457 10.6027 39.2457 20.7935V27.0438C39.2457 33.7827 33.7827 39.2457 27.0438 39.2457H14.5432C7.80436 39.2457 2.34137 33.7827 2.34137 27.0438V20.7935C2.34137 10.6027 10.6027 2.34137 20.7935 2.34137ZM20.7935 0C15.2394 0 10.0177 2.16284 6.09033 6.09033C2.16298 10.0177 0 15.2394 0 20.7935V27.0438C0 35.063 6.52407 41.587 14.5432 41.587H27.0438C35.063 41.587 41.587 35.063 41.587 27.0438V20.7935C41.587 15.2394 39.4242 10.0177 35.4967 6.09033C31.5692 2.16299 26.3477 0 20.7935 0Z" fill="url(#paint1_linear_26_7249)"/>
    <path opacity="0.1" d="M20.7936 26.7293C13.0779 26.7293 6.37209 22.4113 2.95663 16.0612C2.55698 17.5717 2.34143 19.1571 2.34143 20.7937V27.0438C2.34143 33.7827 7.80442 39.2457 14.5433 39.2457H27.0439C33.7827 39.2457 39.2457 33.7827 39.2457 27.0438V20.7937C39.2457 19.1571 39.0302 17.5717 38.6305 16.0612C35.2149 22.4113 28.5093 26.7293 20.7936 26.7293Z" fill="black"/>
    <defs>
        <linearGradient id="paint0_linear_26_7249" x1="20.7936" y1="39.2459" x2="20.7936" y2="2.3414" gradientUnits="userSpaceOnUse">
            <stop stop-color="#F39C12"/>
            <stop offset="0.0758" stop-color="#F3A012"/>
            <stop offset="0.6555" stop-color="#F1BA10"/>
            <stop offset="1" stop-color="#F1C40F"/>
        </linearGradient>
        <linearGradient id="paint1_linear_26_7249" x1="20.7935" y1="41.5872" x2="20.7935" y2="0.000153685" gradientUnits="userSpaceOnUse">
            <stop stop-color="#F1C40F"/>
            <stop offset="0.3445" stop-color="#F1BA10"/>
            <stop offset="0.9242" stop-color="#F3A012"/>
            <stop offset="1" stop-color="#F39C12"/>
        </linearGradient>
    </defs>
</svg>
