<svg width="36" height="36" viewBox="0 0 36 36" fill="none" xmlns="http://www.w3.org/2000/svg">
    <path d="M17.9897 34.0068C26.8358 34.0068 34.007 26.8356 34.007 17.9895C34.007 9.14336 26.8358 1.97217 17.9897 1.97217C9.1436 1.97217 1.97241 9.14336 1.97241 17.9895C1.97241 26.8356 9.1436 34.0068 17.9897 34.0068Z" fill="url(#paint0_linear_26_6999)"/>
    <g opacity="0.2">
        <path d="M17.9898 4.16725C26.4654 4.16725 33.3853 10.7551 33.9516 19.0871C33.9764 18.7229 34.0074 18.3602 34.0074 17.9899C34.0074 9.14379 26.8359 1.9726 17.9901 1.9726C9.14397 1.9726 1.97278 9.14379 1.97278 17.9899C1.97278 18.3605 2.00345 18.7229 2.02827 19.0871C2.59401 10.7551 9.51425 4.16725 17.9898 4.16725Z" fill="white"/>
    </g>
    <path d="M17.9897 29.1429C24.1496 29.1429 29.1431 24.1493 29.1431 17.9894C29.1431 11.8296 24.1496 6.83603 17.9897 6.83603C11.8299 6.83603 6.8363 11.8296 6.8363 17.9894C6.8363 24.1493 11.8299 29.1429 17.9897 29.1429Z" fill="url(#paint1_linear_26_6999)"/>
    <path opacity="0.1" d="M17.9897 7.73358C23.6449 7.73358 28.2456 12.3343 28.2456 17.9894C28.2456 23.6446 23.6449 28.2453 17.9897 28.2453C12.3345 28.2453 7.73386 23.6446 7.73386 17.9894C7.73386 12.3345 12.3345 7.73358 17.9897 7.73358ZM17.9897 6.83603C11.8298 6.83603 6.8363 11.8296 6.8363 17.9894C6.8363 24.1493 11.8298 29.1429 17.9897 29.1429C24.1496 29.1429 29.1431 24.1493 29.1431 17.9894C29.1431 11.8296 24.1496 6.83603 17.9897 6.83603Z" fill="black"/>
    <path opacity="0.1" d="M17.9897 24.9733C10.7134 24.9733 4.5803 20.1175 2.62906 13.4727C2.20803 14.9065 1.97241 16.4199 1.97241 17.9897C1.97241 26.8359 9.1436 34.007 17.9897 34.007C26.8358 34.007 34.007 26.8356 34.007 17.9897C34.007 16.4199 33.7711 14.9067 33.3501 13.4727C31.3991 20.1175 25.266 24.9733 17.9897 24.9733Z" fill="black"/>
    <g opacity="0.4">
        <path d="M21.2119 3.32334C21.2119 3.56369 21.017 3.7586 20.7767 3.7586C20.5363 3.7586 20.3414 3.56369 20.3414 3.32334C20.3414 3.08299 20.5363 2.88809 20.7767 2.88809C21.0173 2.88809 21.2119 3.08299 21.2119 3.32334Z" fill="white"/>
    </g>
    <g opacity="0.4">
        <path d="M19.2498 3.0515C19.2498 3.44186 18.9333 3.75861 18.5427 3.75861C18.1523 3.75861 17.8356 3.44214 17.8356 3.0515C17.8356 2.66114 18.152 2.34439 18.5427 2.34439C18.9333 2.34467 19.2498 2.66114 19.2498 3.0515Z" fill="white"/>
    </g>
    <g opacity="0.4">
        <path d="M10.7856 4.91686C10.7856 5.19596 10.5595 5.42209 10.2804 5.42209C10.0015 5.42209 9.77539 5.19596 9.77539 4.91686C9.77539 4.63803 10.0015 4.4119 10.2804 4.4119C10.5595 4.4119 10.7856 4.63803 10.7856 4.91686Z" fill="white"/>
    </g>
    <path d="M17.9897 1.97215C26.8358 1.97215 34.007 9.14335 34.007 17.9895C34.007 26.8356 26.8358 34.007 17.9897 34.007C9.14334 34.007 1.97215 26.8356 1.97215 17.9895C1.97243 9.14335 9.14362 1.97215 17.9897 1.97215ZM17.9897 0C8.07013 0 0 8.07013 0 17.9895C0 27.9091 8.07013 35.9792 17.9897 35.9792C27.9091 35.9792 35.9792 27.9091 35.9792 17.9895C35.9792 8.07013 27.9093 0 17.9897 0Z" fill="url(#paint2_linear_26_6999)"/>
    <defs>
        <linearGradient id="paint0_linear_26_6999" x1="17.9897" y1="34.0069" x2="17.9897" y2="1.97219" gradientUnits="userSpaceOnUse">
            <stop stop-color="#F39C12"/>
            <stop offset="0.0758" stop-color="#F3A012"/>
            <stop offset="0.6555" stop-color="#F1BA10"/>
            <stop offset="1" stop-color="#F1C40F"/>
        </linearGradient>
        <linearGradient id="paint1_linear_26_6999" x1="17.9897" y1="29.143" x2="17.9897" y2="6.83611" gradientUnits="userSpaceOnUse">
            <stop stop-color="#F1C40F"/>
            <stop offset="0.3445" stop-color="#F1BA10"/>
            <stop offset="0.9242" stop-color="#F3A012"/>
            <stop offset="1" stop-color="#F39C12"/>
        </linearGradient>
        <linearGradient id="paint2_linear_26_6999" x1="17.9897" y1="35.9791" x2="17.9897" y2="8.57806e-05" gradientUnits="userSpaceOnUse">
            <stop stop-color="#AEB6D6"/>
            <stop offset="1" stop-color="#CDD4EC"/>
        </linearGradient>
    </defs>
</svg>
