<svg width="22" height="36" viewBox="0 0 22 36" fill="none" xmlns="http://www.w3.org/2000/svg">
    <path d="M6.30505 1.93567H18.6535C19.4896 1.93567 20.0517 2.79281 19.7184 3.55965L15.5098 13.2458C15.1767 14.0126 15.7386 14.8698 16.5747 14.8698H18.1467C19.0952 14.8698 19.6434 15.9453 19.0864 16.713L7.06203 33.2855C6.91699 33.4853 6.6031 33.3348 6.66796 33.0964L9.75253 21.809C9.9545 21.0701 9.3984 20.3419 8.63238 20.3419H3.09734C2.36471 20.3419 1.81545 19.6719 1.95858 18.9535L5.16603 2.86972C5.2744 2.32675 5.75114 1.93567 6.30505 1.93567Z" fill="url(#paint0_linear_26_7024)"/>
    <path d="M18.6532 1.93569C19.4893 1.93569 20.0514 2.79284 19.7181 3.55967L15.5095 13.2458C15.1762 14.0126 15.7383 14.8698 16.5744 14.8698H18.1466C19.0952 14.8698 19.6434 15.9453 19.0864 16.7127L7.06202 33.2853C7.01495 33.3502 6.9501 33.3781 6.88606 33.3781C6.75305 33.3781 6.62416 33.2571 6.66794 33.0962L9.75252 21.8088C9.95449 21.0699 9.39838 20.3416 8.63237 20.3416H3.09732C2.3647 20.3416 1.81543 19.6717 1.95856 18.9533L5.16601 2.86947C5.27439 2.3265 5.75113 1.93542 6.30477 1.93542H18.6532M18.6532 0H6.30477C4.83295 0 3.55571 1.04762 3.2678 2.49125L0.0603524 18.5751C-0.121641 19.4883 0.112357 20.4248 0.702944 21.1449C1.29353 21.8649 2.16628 22.2776 3.09732 22.2776H7.61785L4.80093 32.5863C4.62195 33.2418 4.75414 33.9254 5.16411 34.4624C5.57133 34.9958 6.21501 35.3143 6.88633 35.3143C7.57243 35.3143 8.22406 34.981 8.62909 34.4224L20.6535 17.8498C21.3407 16.9026 21.4373 15.6667 20.9058 14.6243C20.3741 13.5819 19.3171 12.9344 18.1469 12.9344H17.7558L21.4937 4.33143C21.911 3.37084 21.8171 2.27478 21.243 1.39902C20.6688 0.523264 19.7005 0 18.6532 0Z" fill="url(#paint1_linear_26_7024)"/>
    <g opacity="0.2">
        <path d="M18.6532 1.93567H6.30473C5.75109 1.93567 5.27462 2.32675 5.16597 2.86972L3.53625 11.0424C5.82198 11.9029 8.2886 12.3955 10.8756 12.3955C12.7144 12.3955 14.4881 12.1338 16.1868 11.6872L19.718 3.55965C20.0514 2.79281 19.4892 1.93567 18.6532 1.93567Z" fill="white"/>
    </g>
    <g opacity="0.1">
        <path d="M18.6532 1.93567H6.30473C5.75109 1.93567 5.27462 2.32675 5.16597 2.86972L3.53625 11.0424C5.82198 11.9029 8.2886 12.3955 10.8756 12.3955C12.7144 12.3955 14.4881 12.1338 16.1868 11.6872L19.718 3.55965C20.0514 2.79281 19.4892 1.93567 18.6532 1.93567Z" fill="white"/>
    </g>
    <path opacity="0.1" d="M10.876 17.6569C7.91951 17.6569 5.11136 17.034 2.56263 15.9256L1.95889 18.9536C1.81549 19.672 2.36503 20.3416 3.09765 20.3416H8.63296C9.3987 20.3416 9.95481 21.0702 9.75312 21.8091L6.66854 33.0965C6.60341 33.3346 6.9176 33.4851 7.06265 33.2853L19.0871 16.7127C19.277 16.4511 19.3301 16.155 19.2912 15.8766C16.7148 17.0138 13.8722 17.6569 10.876 17.6569Z" fill="black"/>
    <g opacity="0.4">
        <path d="M8.55874 3.997C8.55874 4.61769 8.05548 5.12098 7.43478 5.12098C6.81409 5.12098 6.31079 4.61769 6.31079 3.997C6.31079 3.37631 6.81409 2.87302 7.43478 2.87302C8.05548 2.87302 8.55874 3.37631 8.55874 3.997Z" fill="white"/>
    </g>
    <g opacity="0.4">
        <path d="M10.8759 5.62043C11.2337 5.62043 11.5237 5.33041 11.5237 4.97265C11.5237 4.61488 11.2337 4.32486 10.8759 4.32486C10.5182 4.32486 10.2281 4.61488 10.2281 4.97265C10.2281 5.33041 10.5182 5.62043 10.8759 5.62043Z" fill="white"/>
    </g>
    <g opacity="0.4">
        <path d="M17.903 3.99703C17.903 4.35472 17.6129 4.64481 17.2552 4.64481C16.8975 4.64481 16.6074 4.35472 16.6074 3.99703C16.6074 3.63934 16.8975 3.34924 17.2552 3.34924C17.6129 3.34924 17.903 3.63934 17.903 3.99703Z" fill="white"/>
    </g>
    <defs>
        <linearGradient id="paint0_linear_26_7024" x1="10.8758" y1="33.3783" x2="10.8758" y2="1.93575" gradientUnits="userSpaceOnUse">
            <stop stop-color="#F39C12"/>
            <stop offset="0.0758" stop-color="#F3A012"/>
            <stop offset="0.6555" stop-color="#F1BA10"/>
            <stop offset="1" stop-color="#F1C40F"/>
        </linearGradient>
        <linearGradient id="paint1_linear_26_7024" x1="10.8757" y1="35.314" x2="10.8757" y2="8.41949e-05" gradientUnits="userSpaceOnUse">
            <stop stop-color="#AEB6D6"/>
            <stop offset="1" stop-color="#CDD4EC"/>
        </linearGradient>
    </defs>
</svg>
