<svg width="21" height="15" viewBox="0 0 21 15" fill="none" xmlns="http://www.w3.org/2000/svg">
    <path d="M17.4546 0H3.28966C2.94285 0 2.79944 0.444566 3.08099 0.647094L9.29 5.11616C9.93651 5.58151 10.8079 5.58151 11.4544 5.11616L17.6635 0.647094C17.9449 0.444566 17.8014 0 17.4546 0Z" fill="#F2F2F2"/>
    <path d="M9.5096 6.9597L1.04 0.863807C0.60773 0.552698 0.00453582 0.860594 0.00307247 1.39325L0 2.48813V10.9868C0 12.7628 1.16951 14.2023 2.61209 14.2023H18.1323C19.575 14.2023 20.7444 12.7628 20.7444 10.9868V2.48813L20.7411 1.39325C20.7397 0.860594 20.1365 0.552698 19.7042 0.863807L11.2345 6.9597C10.7194 7.33051 10.0249 7.33051 9.5096 6.9597Z" fill="#F2F2F2"/>
</svg>
