<svg width="171" height="73" viewBox="0 0 171 73" fill="none" xmlns="http://www.w3.org/2000/svg">
    <path d="M153.705 69.9064H17.2949C9.03286 69.9064 2.33521 63.2088 2.33521 54.9468V17.2952C2.33521 9.03322 9.03286 2.33559 17.2949 2.33559H153.705C161.967 2.33559 168.665 9.03322 168.665 17.2952V54.9468C168.665 63.2088 161.967 69.9064 153.705 69.9064Z" fill="url(#paint0_linear_15_5166)"/>
    <path opacity="0.2" d="M153.705 2.33531H17.2949C9.03286 2.33531 2.33521 9.03295 2.33521 17.295V21.2121C2.33521 12.9501 9.03286 6.25248 17.2949 6.25248H153.705C161.967 6.25248 168.665 12.9501 168.665 21.2121V17.295C168.665 9.03324 161.967 2.33531 153.705 2.33531Z" fill="white"/>
    <path d="M153.705 2.3353C161.967 2.3353 168.665 9.03294 168.665 17.295V54.9465C168.665 63.2085 161.967 69.9061 153.705 69.9061H17.295C9.03295 69.9061 2.3353 63.2085 2.3353 54.9465V17.295C2.3353 9.03294 9.03295 2.3353 17.295 2.3353H153.705ZM153.705 0H17.295C7.75846 0 0 7.75845 0 17.295V54.9465C0 64.483 7.75846 72.2414 17.295 72.2414H153.705C163.242 72.2414 171 64.483 171 54.9465V17.295C171 7.75845 163.242 0 153.705 0Z" fill="url(#paint1_linear_15_5166)"/>
    <path opacity="0.05" d="M85.4999 46.8625C51.9921 46.8625 22.0643 39.767 2.33508 28.6445V54.9465C2.33508 63.2085 9.03274 69.9061 17.2948 69.9061H153.705C161.967 69.9061 168.665 63.2085 168.665 54.9465V28.6445C148.936 39.7673 119.008 46.8625 85.4999 46.8625Z" fill="black"/>
    <path opacity="0.1" d="M153.705 66.4411H17.2949C9.03286 66.4411 2.33521 59.7435 2.33521 51.4815V54.9468C2.33521 63.2088 9.03286 69.9064 17.2949 69.9064H153.705C161.967 69.9064 168.665 63.2088 168.665 54.9468V51.4815C168.665 59.7432 161.967 66.4411 153.705 66.4411Z" fill="black"/>
    <path d="M78.2047 30.5528C78.6472 31.4548 78.8682 32.4592 78.8682 33.5665C78.8682 34.6737 78.6469 35.6738 78.2047 36.5676C77.761 37.4618 77.1908 38.1732 76.4932 38.7001C75.0791 39.7901 73.6152 40.3353 72.0996 40.3353H68.9066V43.2215C68.9066 43.6138 68.8941 43.9081 68.8678 44.1031C68.8427 44.2993 68.7619 44.5249 68.6261 44.7803C68.3867 45.2398 67.7229 45.4701 66.6329 45.4701C65.4413 45.4701 64.7434 45.1543 64.5382 44.5249C64.4366 44.2353 64.3855 43.7928 64.3855 43.1964V29.0202C64.3855 28.6279 64.398 28.3348 64.4243 28.1386C64.4494 27.9425 64.5303 27.7168 64.666 27.4614C64.9042 27.002 65.5692 26.7716 66.6592 26.7716H72.1247C73.6231 26.7716 75.0791 27.3166 76.4932 28.4069C77.1911 28.9347 77.7612 29.6496 78.2047 30.5528ZM73.6321 35.252C74.1258 34.8781 74.3733 34.3158 74.3733 33.5668C74.3733 32.8177 74.1258 32.2508 73.6321 31.8678C73.1385 31.4846 72.6277 31.2931 72.0996 31.2931H68.9066V35.8142H72.1244C72.6355 35.8142 73.1385 35.6271 73.6321 35.252Z" fill="white"/>
    <path d="M85.05 41.7152H91.9978C92.5601 41.7152 92.9681 41.7792 93.2236 41.9067C93.479 42.0343 93.6489 42.234 93.7344 42.5066C93.8199 42.7793 93.8623 43.1418 93.8623 43.5923C93.8623 44.0438 93.8199 44.4052 93.7344 44.6779C93.6489 44.9505 93.5053 45.1373 93.3001 45.2401C92.9763 45.41 92.5338 45.4955 91.9727 45.4955H82.776C81.5844 45.4955 80.8864 45.1718 80.6812 44.5252C80.5796 44.2525 80.5286 43.8182 80.5286 43.2218V29.0208C80.5286 28.6285 80.5411 28.3354 80.5674 28.1393C80.5925 27.9431 80.6734 27.7174 80.8091 27.462C81.0473 27.0025 81.7123 26.7722 82.8023 26.7722C83.9939 26.7722 84.7009 27.0881 84.9221 27.7174C85.0065 28.007 85.05 28.4495 85.05 29.0459V41.7152Z" fill="white"/>
    <path d="M106.326 28.1001L113.224 42.3537C113.512 42.9328 113.657 43.3663 113.657 43.6559C113.657 44.2695 113.164 44.8224 112.176 45.3163C111.597 45.6059 111.142 45.7506 110.81 45.7506C110.478 45.7506 110.206 45.6742 109.992 45.5203C109.779 45.3677 109.626 45.2056 109.533 45.0357C109.439 44.8659 109.307 44.6104 109.137 44.2695L107.809 41.51H100.733L99.4048 44.2695C99.2338 44.6104 99.1027 44.8568 99.0093 45.0095C98.9147 45.1633 98.7617 45.3207 98.5498 45.4827C98.3367 45.6447 98.0641 45.7255 97.7322 45.7255C97.3991 45.7255 96.9443 45.5807 96.3648 45.2912C95.3773 44.8145 94.8837 44.2695 94.8837 43.6559C94.8837 43.3663 95.0285 42.9328 95.318 42.3537L102.214 28.075C102.402 27.6827 102.687 27.368 103.07 27.1298C103.453 26.8916 103.858 26.7716 104.283 26.7716C105.203 26.7716 105.884 27.2153 106.326 28.1001ZM104.258 34.2303L102.573 37.7298H105.97L104.258 34.2303Z" fill="white"/>
    <path d="M126.097 27.1298C126.931 27.709 127.349 28.2712 127.349 28.815C127.349 29.1387 127.153 29.5903 126.761 30.1698L121.244 38.4198V43.2992C121.244 43.6903 121.231 43.9846 121.205 44.1796C121.18 44.3757 121.099 44.6014 120.963 44.8568C120.826 45.1122 120.596 45.2912 120.273 45.3928C119.95 45.4955 119.515 45.5466 118.97 45.5466C118.425 45.5466 117.99 45.4952 117.668 45.3928C117.344 45.2912 117.115 45.1076 116.978 44.8442C116.841 44.5798 116.761 44.3506 116.735 44.1544C116.71 43.9583 116.697 43.6562 116.697 43.2481V38.4201L111.18 30.1701C110.789 29.5909 110.592 29.1393 110.592 28.8153C110.592 28.2715 110.966 27.7469 111.717 27.2451C112.466 26.7422 113.002 26.4914 113.326 26.4914C113.648 26.4914 113.904 26.5597 114.092 26.6954C114.382 26.8837 114.687 27.2325 115.011 27.7434L118.97 34.0776L122.93 27.7434C123.253 27.2325 123.533 26.8963 123.773 26.7343C124.011 26.5723 124.288 26.4914 124.603 26.4914C124.918 26.4911 125.416 26.7045 126.097 27.1298Z" fill="white"/>
    <g opacity="0.2">
        <path d="M72.1247 26.7716C73.6231 26.7716 75.0792 27.3166 76.4932 28.4069C77.1911 28.935 77.7613 29.6499 78.2047 30.5531C78.6472 31.4551 78.8682 32.4596 78.8682 33.5668C78.8682 34.674 78.6469 35.6741 78.2047 36.5679C77.761 37.4621 77.1909 38.1735 76.4932 38.7004C75.0792 39.7904 73.6152 40.3357 72.0996 40.3357H68.9066V43.2218C68.9066 43.6141 68.8941 43.9084 68.8678 44.1034C68.8427 44.2996 68.7619 44.5252 68.6261 44.7806C68.3868 45.2401 67.7229 45.4704 66.6329 45.4704C65.4413 45.4704 64.7434 45.1546 64.5382 44.5252C64.4366 44.2356 64.3855 43.7931 64.3855 43.1967V29.0205C64.3855 28.6282 64.3981 28.3351 64.4243 28.1389C64.4494 27.9428 64.5303 27.7171 64.666 27.4617C64.9042 27.0022 65.5692 26.7719 66.6592 26.7719L72.1247 26.7716ZM68.9069 35.8142H72.1247C72.6355 35.8142 73.1385 35.6271 73.6321 35.252C74.1258 34.8781 74.3733 34.3158 74.3733 33.5668C74.3733 32.8177 74.1258 32.2508 73.6321 31.8678C73.1385 31.4846 72.6277 31.2931 72.0996 31.2931H68.9066V35.8142M72.1247 25.604H66.6595C66.0795 25.604 64.3143 25.604 63.6297 26.924C63.4304 27.2991 63.3098 27.6515 63.2663 27.9907C63.2336 28.2344 63.2181 28.5637 63.2181 29.0202V43.1964C63.2181 43.9338 63.2862 44.4753 63.4324 44.8988C63.6966 45.6952 64.4672 46.6378 66.6332 46.6378C67.2124 46.6378 68.9752 46.6378 69.6618 45.3198C69.8624 44.9426 69.9829 44.5903 70.0264 44.2511C70.0591 44.0091 70.0746 43.6795 70.0746 43.2215V41.503H72.0999C73.8718 41.503 75.59 40.871 77.2063 39.6248C78.0362 38.9984 78.7272 38.1419 79.2509 37.0867C79.7722 36.0335 80.0361 34.8494 80.0361 33.5665C80.0361 32.2847 79.7728 31.0978 79.2532 30.0384C78.7304 28.9738 78.0389 28.1118 77.1979 27.4754C75.5897 26.236 73.88 25.604 72.1247 25.604ZM70.0746 32.4604H72.0999C72.3638 32.4604 72.6309 32.5682 72.9167 32.79C73.0034 32.8572 73.206 33.0145 73.206 33.5665C73.206 34.11 73.0107 34.258 72.9275 34.3211C72.6391 34.5403 72.3769 34.6463 72.125 34.6463H70.0749V32.4604H70.0746Z" fill="black"/>
        <path d="M82.8023 26.7716C83.9939 26.7716 84.7009 27.0875 84.9222 27.7169C85.0066 28.0064 85.0501 28.449 85.0501 29.0454V41.715H91.9979C92.5601 41.715 92.9682 41.7789 93.2236 41.9065C93.479 42.034 93.6489 42.2337 93.7345 42.5063C93.82 42.779 93.8623 43.1415 93.8623 43.5919C93.8623 44.0435 93.82 44.4049 93.7345 44.6776C93.6489 44.9502 93.5053 45.137 93.3001 45.2398C92.9764 45.4097 92.5338 45.4952 91.9728 45.4952H82.7761C81.5845 45.4952 80.8865 45.1715 80.6813 44.5249C80.5797 44.2523 80.5286 43.8179 80.5286 43.2215V29.0205C80.5286 28.6282 80.5412 28.3351 80.5674 28.1389C80.5925 27.9428 80.6734 27.7171 80.8091 27.4617C81.0476 27.0019 81.7123 26.7716 82.8023 26.7716ZM82.8023 25.604C82.2223 25.604 80.4571 25.604 79.7726 26.924C79.5732 27.2991 79.4526 27.6515 79.4091 27.9907C79.3764 28.2344 79.361 28.5637 79.361 29.0202V43.2212C79.361 43.9577 79.4299 44.494 79.5773 44.905C79.8441 45.7136 80.6174 46.6626 82.7761 46.6626H91.9725C92.7271 46.6626 93.336 46.5368 93.8334 46.2781C94.1741 46.105 94.6222 45.748 94.8484 45.027C94.9704 44.6382 95.0297 44.1688 95.0297 43.5919C95.0297 43.0151 94.9704 42.5454 94.8484 42.1566C94.6674 41.5801 94.2862 41.1323 93.7456 40.862C93.3159 40.6471 92.7606 40.5473 91.9976 40.5473H86.2177V29.0454C86.2177 28.3343 86.1608 27.793 86.0434 27.3902L86.0344 27.3595L86.0239 27.3295C85.7471 26.5425 84.9636 25.604 82.8023 25.604Z" fill="black"/>
        <path d="M104.283 26.7716C105.203 26.7716 105.884 27.2153 106.326 28.1001L113.224 42.3537C113.512 42.9328 113.657 43.3663 113.657 43.6559C113.657 44.2695 113.164 44.8224 112.176 45.3163C111.597 45.6059 111.142 45.7506 110.81 45.7506C110.478 45.7506 110.206 45.6742 109.992 45.5203C109.779 45.3677 109.626 45.2056 109.533 45.0358C109.439 44.8659 109.307 44.6104 109.137 44.2695L107.809 41.51H100.733L99.4049 44.2695C99.2338 44.6104 99.1027 44.8568 99.0093 45.0095C98.9147 45.1633 98.7618 45.3207 98.5498 45.4827C98.3368 45.6447 98.0641 45.7256 97.7322 45.7256C97.3991 45.7256 96.9443 45.5808 96.3649 45.2912C95.3773 44.8145 94.8837 44.2695 94.8837 43.6559C94.8837 43.3663 95.0285 42.9328 95.3181 42.3537L102.215 28.075C102.402 27.6827 102.687 27.368 103.07 27.1298C103.453 26.8916 103.858 26.7716 104.283 26.7716ZM102.573 37.7298H105.97L104.258 34.2303L102.573 37.7298ZM104.283 25.604C103.638 25.604 103.023 25.7838 102.453 26.1382C101.879 26.4952 101.444 26.978 101.16 27.5724L94.2701 41.8384C93.8868 42.6062 93.7161 43.1669 93.7161 43.6559C93.7161 44.7508 94.4342 45.6537 95.8499 46.3391C96.6075 46.7172 97.2056 46.8932 97.7319 46.8932C98.323 46.8932 98.8356 46.7315 99.2557 46.4127C99.5879 46.159 99.8319 45.9007 100.004 45.621C100.115 45.4392 100.256 45.1767 100.448 44.7932L100.453 44.7847L100.457 44.7759L101.467 42.6777H107.075L108.085 44.7759L108.088 44.7833L108.092 44.7903C108.264 45.1365 108.405 45.4085 108.51 45.5988C108.688 45.9229 108.958 46.216 109.312 46.4696C109.723 46.7665 110.228 46.9186 110.81 46.9186C111.337 46.9186 111.937 46.7414 112.698 46.3607C114.109 45.6552 114.825 44.7453 114.825 43.6562C114.825 43.1672 114.654 42.6053 114.269 41.8335L107.377 27.5919L107.374 27.5852L107.371 27.5785C106.735 26.3052 105.638 25.604 104.283 25.604Z" fill="black"/>
        <path d="M124.603 26.4911C124.918 26.4911 125.416 26.7042 126.097 27.1298C126.931 27.709 127.349 28.2712 127.349 28.815C127.349 29.1387 127.153 29.5903 126.762 30.1698L121.244 38.4198V43.2992C121.244 43.6903 121.231 43.9846 121.205 44.1796C121.18 44.3757 121.099 44.6014 120.963 44.8568C120.826 45.1122 120.596 45.2912 120.273 45.3928C119.95 45.4955 119.515 45.5466 118.97 45.5466C118.425 45.5466 117.99 45.4952 117.668 45.3928C117.344 45.2912 117.115 45.1076 116.978 44.8442C116.841 44.5798 116.761 44.3506 116.735 44.1544C116.71 43.9583 116.698 43.6562 116.698 43.2481V38.4201L111.18 30.1701C110.789 29.5909 110.592 29.1393 110.592 28.8153C110.592 28.2715 110.966 27.7469 111.717 27.2451C112.466 26.7422 113.002 26.4914 113.326 26.4914C113.648 26.4914 113.904 26.5597 114.092 26.6954C114.382 26.8837 114.687 27.2325 115.011 27.7434L118.97 34.0776L122.93 27.7434C123.253 27.2325 123.534 26.8963 123.773 26.7343C124.011 26.5723 124.287 26.4911 124.603 26.4911ZM124.603 25.3235C124.051 25.3235 123.551 25.4732 123.117 25.768C122.736 26.0252 122.363 26.4552 121.943 27.1193L118.97 31.8743L116.001 27.124C115.586 26.4686 115.178 26.0144 114.75 25.7306C114.364 25.4603 113.885 25.3231 113.326 25.3231C112.736 25.3231 112.06 25.6078 111.066 26.2751C109.977 27.0028 109.425 27.8578 109.425 28.8147C109.425 29.3892 109.675 30.0273 110.212 30.8228L115.53 38.7739V43.2475C115.53 43.7096 115.545 44.0546 115.577 44.3022C115.622 44.6443 115.741 44.9946 115.941 45.3802C116.223 45.9235 116.699 46.3123 117.319 46.5064C117.756 46.6453 118.298 46.7137 118.97 46.7137C119.642 46.7137 120.184 46.6454 120.626 46.5053C121.238 46.3129 121.711 45.9331 121.993 45.4077C122.199 45.0185 122.32 44.6662 122.363 44.327C122.396 44.085 122.411 43.7557 122.411 43.2986V38.7739L127.732 30.8187C128.266 30.0276 128.517 29.3895 128.517 28.815C128.517 27.8678 127.927 26.978 126.763 26.1703L126.74 26.1542L126.716 26.1393C125.812 25.5751 125.161 25.3235 124.603 25.3235Z" fill="black"/>
    </g>
    <path d="M42.309 33.2638L25.6282 23.6333C23.3209 22.301 20.4365 23.9663 20.4365 26.6306V45.8919C20.4365 48.5562 23.3206 50.2216 25.6282 48.8893L42.309 39.2588C44.6163 37.9262 44.6163 34.5958 42.309 33.2638Z" fill="white"/>
    <path opacity="0.2" d="M23.903 23.1641C24.4793 23.1641 25.0707 23.311 25.6282 23.633L42.309 33.2635C44.6163 34.5958 44.6163 37.9262 42.309 39.2582L25.6282 48.8887C25.0704 49.2107 24.4793 49.3575 23.903 49.3575C22.0952 49.3575 20.4366 47.9117 20.4366 45.8913V26.63C20.4366 24.61 22.0949 23.1641 23.903 23.1641ZM23.903 21.9965C21.3479 21.9965 19.2689 24.0752 19.2689 26.6303V45.8916C19.2689 48.4467 21.3476 50.5255 23.903 50.5255C24.7052 50.5255 25.5036 50.3091 26.2121 49.9002L42.8929 40.2697C44.3419 39.433 45.2071 37.9344 45.2071 36.2611C45.2071 34.5879 44.3419 33.0892 42.8929 32.2526L26.2121 22.6221C25.5036 22.2128 24.7052 21.9965 23.903 21.9965Z" fill="black"/>
    <defs>
        <linearGradient id="paint0_linear_15_5166" x1="85.4998" y1="69.9064" x2="85.4998" y2="2.33535" gradientUnits="userSpaceOnUse">
            <stop stop-color="#19B395"/>
            <stop offset="1" stop-color="#1DCFAC"/>
        </linearGradient>
        <linearGradient id="paint1_linear_15_5166" x1="85.4999" y1="72.2417" x2="85.4999" y2="0" gradientUnits="userSpaceOnUse">
            <stop stop-color="#AEB6D6"/>
            <stop offset="1" stop-color="#CDD4EC"/>
        </linearGradient>
    </defs>
</svg>
