<svg width="24" height="24" viewBox="0 0 24 24" fill="none" xmlns="http://www.w3.org/2000/svg">
    <path d="M21.9662 9.13959H20.2548C20.0968 8.63502 19.8907 8.15241 19.6491 7.69102L20.8631 6.47702C21.4886 5.85158 21.4886 4.83762 20.8631 4.21218L19.3749 2.72396C18.7495 2.09852 17.7355 2.09852 17.1101 2.72396L15.8959 3.93796C15.4347 3.69665 14.9518 3.49046 14.4472 3.33213V1.62103C14.4472 0.736432 13.7302 0.0195312 12.8457 0.0195312H10.7411C9.85668 0.0195312 9.13964 0.736432 9.13964 1.62103V3.33213C8.63493 3.49032 8.15231 3.6965 7.69092 3.93796L6.47692 2.72396C5.85148 2.09852 4.83753 2.09852 4.21209 2.72396L2.72386 4.21218C2.09842 4.83762 2.09842 5.85158 2.72386 6.47702L3.93785 7.69102C3.6964 8.15241 3.49036 8.63502 3.33217 9.13959H1.62078C0.73633 9.13959 0.0192871 9.85649 0.0192871 10.7411V12.8458C0.0192871 13.7304 0.73633 14.4473 1.62078 14.4473H3.33217C3.49022 14.9519 3.69625 15.4348 3.93785 15.8959L2.72386 17.1099C2.09842 17.7353 2.09842 18.7493 2.72386 19.3747L4.21209 20.863C4.83753 21.4884 5.85148 21.4884 6.47692 20.863L7.69092 19.649C8.15231 19.8903 8.63493 20.0964 9.13964 20.2548V21.9659C9.13964 22.8502 9.85668 23.5674 10.7411 23.5674H12.8457C13.7302 23.5674 14.4472 22.8502 14.4472 21.9659V20.2548C14.9519 20.0966 15.4347 19.8903 15.8959 19.649L17.1101 20.863C17.7355 21.4884 18.7495 21.4884 19.3749 20.863L20.8631 19.3747C21.4886 18.7493 21.4886 17.7353 20.8631 17.1099L19.6491 15.8959C19.8906 15.4348 20.0966 14.9519 20.2548 14.4473H21.9662C22.8507 14.4473 23.5677 13.7304 23.5677 12.8458V10.7411C23.5677 9.85649 22.8507 9.13959 21.9662 9.13959ZM11.7936 15.1288C9.9515 15.1288 8.4583 13.6357 8.4583 11.7935C8.4583 9.95131 9.95165 8.45825 11.7936 8.45825C13.6355 8.45825 15.1288 9.95131 15.1288 11.7935C15.1288 13.6357 13.6356 15.1288 11.7936 15.1288Z" fill="white"/>
</svg>
