<svg width="45" height="65" viewBox="0 0 45 65" fill="none" xmlns="http://www.w3.org/2000/svg">
    <g clip-path="url(#clip0_28_9006)">
        <path d="M28.4286 38.5236H25.6882H19.9875H17.247L12.7523 64.2041H19.9875H25.6882H32.9234L28.4286 38.5236Z" fill="#1B3F92"/>
        <path d="M29.9585 47.2635L28.4286 38.5236H17.247L15.7174 47.2635H29.9585Z" fill="#163577"/>
        <path d="M13.8718 57.8074L12.7523 64.2041H32.9234L31.804 57.8074H13.8718Z" fill="#163577"/>
        <path opacity="0.5" d="M28.4287 38.5236H22.5909V64.2041H32.9235L28.4287 38.5236Z" fill="#163577"/>
        <path d="M37.8707 59.0493H8.40417V64.2979H37.8707V59.0493Z" fill="#0067B2"/>
        <path d="M37.8707 61.7468H8.40417V64.298H37.8707V61.7468Z" fill="#153576"/>
        <path d="M22.8381 3.26862C17.1272 3.26862 11.7583 5.51086 7.7202 9.58241C3.68209 13.654 1.45825 19.0672 1.45825 24.8252C1.45825 30.5831 3.68221 35.9966 7.7202 40.0681C11.7582 44.1396 17.1272 46.3818 22.8381 46.3818C28.5488 46.3818 33.9175 44.1396 37.9557 40.0681C41.9938 35.9966 44.2176 30.5831 44.2176 24.8252C44.2176 19.0672 41.9938 13.654 37.9557 9.58241C33.9175 5.51086 28.5488 3.26862 22.8381 3.26862Z" fill="#1D1D1B"/>
        <path d="M37.265 39.372C45.2331 31.3379 45.2331 18.3122 37.2651 10.2783C29.2971 2.24428 16.3783 2.24432 8.41025 10.2784C0.442182 18.3124 0.442142 31.3381 8.41016 39.3721C16.3782 47.4061 29.2969 47.406 37.265 39.372Z" fill="#008DD0"/>
        <path d="M37.265 39.372C45.2331 31.3379 45.2331 18.3122 37.2651 10.2783C29.2971 2.24428 16.3783 2.24432 8.41025 10.2784C0.442182 18.3124 0.442142 31.3381 8.41016 39.3721C16.3782 47.4061 29.2969 47.406 37.265 39.372Z" fill="#008DD0"/>
        <path d="M40.7023 32.19C44.7361 22.2413 40.0074 10.8793 30.1404 6.81216C20.2735 2.745 9.00476 7.51287 4.971 17.4615C0.937244 27.4101 5.66597 38.7721 15.5329 42.8393C25.3998 46.9065 36.6686 42.1386 40.7023 32.19Z" fill="#0A477E"/>
        <path d="M36.082 38.1791C43.3966 30.8039 43.3966 18.8464 36.082 11.4712C28.7673 4.09599 16.908 4.09599 9.59333 11.4712C2.27869 18.8464 2.27869 30.8039 9.59333 38.1791C16.908 45.5543 28.7673 45.5543 36.082 38.1791Z" fill="#70C8DD"/>
        <path d="M32.2029 8.46683C29.448 6.8598 26.2495 5.93961 22.838 5.93961V24.8252L32.2029 8.46683Z" fill="#F2E6B5"/>
        <path d="M22.8381 5.93973C19.4263 5.93973 16.2279 6.85992 13.4729 8.46695L22.8381 24.8254V5.93973Z" fill="#70C8DD"/>
        <path d="M41.5684 24.8253V24.8252C41.5684 21.3854 40.6557 18.1605 39.0622 15.3828L22.838 24.8253H41.5684Z" fill="#E83A55"/>
        <path d="M13.4729 8.46683C10.6294 10.1253 8.25855 12.5157 6.61365 15.3827L22.838 24.8252L13.4729 8.46683Z" fill="#F6A000"/>
        <path d="M6.61364 15.3827C5.02006 18.1604 4.10742 21.3852 4.10742 24.825L22.838 24.8252L6.61364 15.3827Z" fill="#FFEC55"/>
        <path d="M39.062 15.3827C37.4171 12.5157 35.0463 10.1252 32.2028 8.46683L22.8379 24.8253L39.062 15.3827Z" fill="#009A9A"/>
        <path d="M32.2029 41.1837C35.0464 39.5251 37.4171 37.1346 39.0622 34.2677L22.838 24.8253L32.2029 41.1837Z" fill="#B14191"/>
        <path d="M22.838 43.7107C26.2495 43.7107 29.448 42.7905 32.2029 41.1837L22.838 24.8253V43.7107Z" fill="#83C8B8"/>
        <path d="M22.838 24.8253L39.0622 34.2677C40.6557 31.49 41.5684 28.2651 41.5684 24.8253H22.838Z" fill="#F6A000"/>
        <path d="M6.61365 34.2677C8.25855 37.1346 10.6295 39.5252 13.4729 41.1837L22.838 24.8253L6.61365 34.2677Z" fill="#009DD0"/>
        <path d="M13.4729 41.1837C16.2279 42.7905 19.4263 43.7107 22.8381 43.7107V24.8253L13.4729 41.1837Z" fill="#DE97BD"/>
        <path d="M4.10742 24.8253C4.10742 28.2652 5.02006 31.49 6.61364 34.2677L22.838 24.8253H4.10742Z" fill="#E73186"/>
        <path d="M22.9773 6.08082C26.1504 6.10478 29.2682 6.94595 32.0123 8.51857L22.9773 24.3004V6.08082ZM22.838 5.93973V24.8253L32.2029 8.46683C29.448 6.8598 26.2495 5.93973 22.838 5.93973Z" fill="white"/>
        <path d="M22.6985 6.08082V24.3004L13.6635 8.51857C16.4075 6.94595 19.5254 6.10465 22.6985 6.08082ZM22.8381 5.93973C19.4263 5.93973 16.2279 6.85992 13.4729 8.46695L22.8381 24.8254V5.93973Z" fill="white"/>
        <path d="M39.0107 15.575C40.5704 18.3417 41.4046 21.4854 41.4283 24.6847H23.3583L39.0107 15.575ZM39.062 15.3827L22.8379 24.8252H41.5683C41.5684 21.3855 40.6557 18.1605 39.062 15.3827Z" fill="white"/>
        <path d="M13.4223 8.65928L22.4571 24.4413L6.80477 15.3316C8.41036 12.5808 10.6941 10.2783 13.4223 8.65928ZM13.4729 8.46683C10.6294 10.1253 8.25855 12.5157 6.61365 15.3827L22.838 24.8252L13.4729 8.46683Z" fill="white"/>
        <path d="M6.66509 15.575L22.3173 24.6847L4.24735 24.6846C4.27112 21.4854 5.10564 18.3417 6.66509 15.575ZM6.61364 15.3827C5.02006 18.1604 4.10742 21.3852 4.10742 24.825L22.838 24.8252L6.61364 15.3827Z" fill="white"/>
        <path d="M32.2536 8.65928C34.9817 10.2782 37.2653 12.5809 38.871 15.3315L23.2187 24.4413L32.2536 8.65928ZM32.2029 8.46683L22.838 24.8253L39.0622 15.3828C37.4173 12.5157 35.0464 10.1253 32.2029 8.46683Z" fill="white"/>
        <path d="M23.2187 25.2093L38.871 34.3191C37.2654 37.0695 34.9816 39.372 32.2536 40.9912L23.2187 25.2093ZM22.838 24.8253L32.2029 41.1837C35.0464 39.5251 37.4171 37.1346 39.0622 34.2677L22.838 24.8253Z" fill="white"/>
        <path d="M22.9773 25.3501L32.0123 41.132C29.2682 42.7046 26.1504 43.5457 22.9773 43.5696V25.3501ZM22.838 24.8253V43.7107C26.2495 43.7107 29.448 42.7905 32.2029 41.1837L22.838 24.8253Z" fill="white"/>
        <path d="M41.4283 24.9659C41.4046 28.1653 40.5704 31.3088 39.0107 34.0757L23.3583 24.9659H41.4283ZM41.5684 24.8253H22.838L39.0622 34.2677C40.6557 31.49 41.5684 28.2652 41.5684 24.8253Z" fill="white"/>
        <path d="M22.4571 25.2093L13.4222 40.991C10.694 39.3722 8.41036 37.0696 6.80464 34.319L22.4571 25.2093ZM22.838 24.8253L6.61365 34.2677C8.25855 37.1346 10.6295 39.5252 13.4729 41.1837L22.838 24.8253Z" fill="white"/>
        <path d="M22.6985 25.3501V43.5696C19.5253 43.5457 16.4076 42.7046 13.6634 41.132L22.6985 25.3501ZM22.8381 24.8253L13.4729 41.1837C16.2279 42.7905 19.4263 43.7107 22.8381 43.7107V24.8253Z" fill="white"/>
        <path d="M22.3174 24.9659L6.66509 34.0756C5.10551 31.3087 4.27112 28.1651 4.24735 24.9657H22.3174V24.9659ZM22.838 24.8253H4.10742C4.10742 28.2652 5.02006 31.49 6.61364 34.2677L22.838 24.8253Z" fill="white"/>
        <path d="M30.5415 24.8397C30.5415 29.1296 27.0923 32.6072 22.838 32.6072C18.5834 32.6072 15.1343 29.1294 15.1343 24.8397C15.1343 20.5499 18.5834 17.0724 22.838 17.0724C27.0923 17.0724 30.5415 20.5499 30.5415 24.8397Z" fill="#706F6F"/>
        <path d="M30.0417 24.8251C30.0417 28.8367 26.8163 32.0888 22.838 32.0888C18.8591 32.0888 15.634 28.8367 15.634 24.8251C15.634 20.8136 18.8592 17.5616 22.838 17.5616C26.8164 17.5616 30.0417 20.8136 30.0417 24.8251Z" fill="#1D3B79"/>
        <path d="M30.0344 25.121C30.0382 25.0227 30.0417 24.9243 30.0417 24.8251C30.0417 20.8136 26.8163 17.5616 22.838 17.5616C18.8591 17.5616 15.634 20.8136 15.634 24.8251C15.634 24.9243 15.6373 25.0227 15.6414 25.121H30.0344Z" fill="#00549C"/>
        <path d="M28.5546 24.8252C28.5546 28.0086 25.9949 30.5894 22.8379 30.5894C19.6804 30.5894 17.121 28.0086 17.121 24.8252C17.121 21.6419 19.6804 19.0612 22.8379 19.0612C25.9949 19.0611 28.5546 21.6419 28.5546 24.8252Z" fill="#241954"/>
        <path d="M28.1364 24.8252C28.1364 27.7756 25.7641 30.1675 22.838 30.1675C19.9118 30.1675 17.5396 27.7756 17.5396 24.8252C17.5396 21.8748 19.9118 19.4828 22.838 19.4828C25.7641 19.4828 28.1364 21.8747 28.1364 24.8252Z" fill="#6B9ED5"/>
        <path d="M22.9499 20.3952L24.186 22.9209L26.9504 23.3258L24.9501 25.2916L25.4224 28.0678L22.9499 26.757L20.4776 28.0678L20.9497 25.2916L18.9493 23.3258L21.7138 22.9209L22.9499 20.3952Z" fill="#F9B105"/>
        <g opacity="0.4">
            <path d="M22.9507 24.6363H22.9497V24.6373H22.9507V24.6363Z" fill="#F39700"/>
            <path d="M24.1859 22.9209L22.9498 20.3952V24.6363L24.1859 22.9209Z" fill="#D95915"/>
            <path d="M22.9498 24.6364V24.6365L24.9501 25.2916L26.9503 23.3258L22.9498 24.6364Z" fill="#D95915"/>
            <path d="M22.9498 26.7571L25.4223 28.0678L22.9498 24.6365V26.7571Z" fill="#D95915"/>
            <path d="M20.9497 25.2916L20.4775 28.0678L22.9499 24.6365L20.9497 25.2916Z" fill="#D95915"/>
            <path d="M22.9499 24.6364L21.7138 22.9209L18.9493 23.3258L22.9499 24.6365V24.6364Z" fill="#D95915"/>
        </g>
        <path opacity="0.5" d="M22.912 20.5545L22.8435 23.4865L22.9288 24.5421L22.926 23.8764L22.912 20.5545Z" fill="white"/>
        <path opacity="0.5" d="M23.0713 24.5421L26.7926 23.3372L24.084 24.1406L23.0713 24.5421Z" fill="white"/>
        <path opacity="0.5" d="M23.0371 24.699L25.3589 27.8929L23.8793 25.7241L23.0371 24.699Z" fill="white"/>
        <path opacity="0.5" d="M22.9083 24.745L20.6586 27.9273L22.2404 25.8274L22.9083 24.745Z" fill="white"/>
        <path opacity="0.5" d="M19.1678 23.429L22.8322 24.634L21.7737 24.393L19.1678 23.429Z" fill="white"/>
        <path d="M15.7476 24.9453C15.7476 24.9453 16.0612 19.2632 21.0808 18.0449C21.0808 18.0449 24.4271 17.0608 26.7976 19.0758C26.7976 19.0758 18.2224 15.069 15.7476 24.9453Z" fill="#008FCD"/>
        <path opacity="0.6" d="M22.4054 19.8841C22.4054 19.8841 19.7563 20.095 18.2922 22.977C18.2922 22.977 16.7585 26.2456 19.8957 28.9169C19.8957 28.9169 18.4331 26.8175 19.9655 24.2423C21.6387 21.4306 25.5079 21.044 27.2509 22.2389C27.2509 22.2389 25.6821 19.4624 22.4054 19.8841Z" fill="#F0F8FD"/>
        <path d="M22.7168 4.12674H20.2358L22.838 11.8356L25.44 4.12674H22.7168Z" fill="#706F6F"/>
        <path d="M22.8381 10.992L20.0381 2.69736H25.6378L22.8381 10.992Z" fill="#E53818"/>
        <path d="M22.8381 10.992L22.7078 2.69736H25.6378L22.8381 10.992Z" fill="#AC2E0F"/>
        <path d="M20.3489 3.04886L22.6146 9.86736L22.4404 8.67225L20.3489 3.04886Z" fill="#E85045"/>
        <path d="M10.3986 61.5069C10.3986 62.0213 9.98508 62.4384 9.47479 62.4384C8.96475 62.4384 8.55103 62.0215 8.55103 61.5069C8.55103 60.9926 8.96462 60.5754 9.47479 60.5754C9.98508 60.5754 10.3986 60.9926 10.3986 61.5069Z" fill="#F29700"/>
        <path d="M10.0182 61.4051C10.0182 61.7769 9.71937 62.0783 9.35064 62.0783C8.98205 62.0783 8.68323 61.7769 8.68323 61.4051C8.68323 61.0335 8.98205 60.7321 9.35064 60.7321C9.71937 60.7321 10.0182 61.0335 10.0182 61.4051Z" fill="#F9B105"/>
        <path opacity="0.5" d="M9.55045 61.1371C9.55045 61.3089 9.41242 61.4482 9.2419 61.4482C9.0715 61.4482 8.93347 61.3088 8.93347 61.1371C8.93347 60.9652 9.07163 60.826 9.2419 60.826C9.41242 60.826 9.55045 60.9653 9.55045 61.1371Z" fill="white"/>
        <path d="M14.8705 61.5069C14.8705 62.0213 14.457 62.4384 13.9467 62.4384C13.4367 62.4384 13.0228 62.0215 13.0228 61.5069C13.0228 60.9926 13.4365 60.5754 13.9467 60.5754C14.457 60.5754 14.8705 60.9926 14.8705 61.5069Z" fill="#F29700"/>
        <path d="M14.4901 61.4051C14.4901 61.7769 14.1913 62.0783 13.8226 62.0783C13.4537 62.0783 13.1549 61.7769 13.1549 61.4051C13.1549 61.0335 13.4537 60.7321 13.8226 60.7321C14.1913 60.7321 14.4901 61.0335 14.4901 61.4051Z" fill="#F9B105"/>
        <path opacity="0.5" d="M14.0224 61.1371C14.0224 61.3089 13.8841 61.4482 13.7138 61.4482C13.5433 61.4482 13.4054 61.3088 13.4054 61.1371C13.4054 60.9652 13.5434 60.826 13.7138 60.826C13.8841 60.826 14.0224 60.9653 14.0224 61.1371Z" fill="white"/>
        <path d="M19.3424 61.5069C19.3424 62.0213 18.9287 62.4384 18.4185 62.4384C17.9085 62.4384 17.4948 62.0215 17.4948 61.5069C17.4948 60.9926 17.9083 60.5754 18.4185 60.5754C18.9286 60.5754 19.3424 60.9926 19.3424 61.5069Z" fill="#F29700"/>
        <path d="M18.9619 61.4051C18.9619 61.7769 18.663 62.0783 18.2944 62.0783C17.9257 62.0783 17.6267 61.7769 17.6267 61.4051C17.6267 61.0335 17.9257 60.7321 18.2944 60.7321C18.663 60.7321 18.9619 61.0335 18.9619 61.4051Z" fill="#F9B105"/>
        <path opacity="0.5" d="M18.4943 61.1371C18.4943 61.3089 18.356 61.4482 18.1857 61.4482C18.0152 61.4482 17.8773 61.3088 17.8773 61.1371C17.8773 60.9652 18.0154 60.826 18.1857 60.826C18.356 60.826 18.4943 60.9653 18.4943 61.1371Z" fill="white"/>
        <path d="M23.8141 61.5069C23.8141 62.0213 23.4004 62.4384 22.8903 62.4384C22.3803 62.4384 21.9666 62.0215 21.9666 61.5069C21.9666 60.9926 22.3801 60.5754 22.8903 60.5754C23.4005 60.5754 23.8141 60.9926 23.8141 61.5069Z" fill="#F29700"/>
        <path d="M23.4337 61.4051C23.4337 61.7769 23.135 62.0783 22.7663 62.0783C22.3976 62.0783 22.0986 61.7769 22.0986 61.4051C22.0986 61.0335 22.3976 60.7321 22.7663 60.7321C23.1349 60.7321 23.4337 61.0335 23.4337 61.4051Z" fill="#F9B105"/>
        <path opacity="0.5" d="M22.6574 61.4482C22.8278 61.4482 22.966 61.3089 22.966 61.1371C22.966 60.9653 22.8278 60.826 22.6574 60.826C22.487 60.826 22.3489 60.9653 22.3489 61.1371C22.3489 61.3089 22.487 61.4482 22.6574 61.4482Z" fill="white"/>
        <path d="M28.286 61.5069C28.286 62.0213 27.8724 62.4384 27.3622 62.4384C26.8521 62.4384 26.4385 62.0215 26.4385 61.5069C26.4385 60.9926 26.8519 60.5754 27.3622 60.5754C27.8724 60.5754 28.286 60.9926 28.286 61.5069Z" fill="#F29700"/>
        <path d="M27.9056 61.4051C27.9056 61.7769 27.6068 62.0783 27.2382 62.0783C26.8695 62.0783 26.5706 61.7769 26.5706 61.4051C26.5706 61.0335 26.8695 60.7321 27.2382 60.7321C27.6067 60.7321 27.9056 61.0335 27.9056 61.4051Z" fill="#F9B105"/>
        <path opacity="0.5" d="M27.1295 61.4482C27.2999 61.4482 27.438 61.3089 27.438 61.1371C27.438 60.9653 27.2999 60.826 27.1295 60.826C26.9591 60.826 26.8209 60.9653 26.8209 61.1371C26.8209 61.3089 26.9591 61.4482 27.1295 61.4482Z" fill="white"/>
        <path d="M32.7578 61.5069C32.7578 62.0213 32.3443 62.4384 31.834 62.4384C31.3239 62.4384 30.9103 62.0215 30.9103 61.5069C30.9103 60.9926 31.3237 60.5754 31.834 60.5754C32.3443 60.5754 32.7578 60.9926 32.7578 61.5069Z" fill="#F29700"/>
        <path d="M32.3776 61.4051C32.3776 61.7769 32.0786 62.0783 31.7099 62.0783C31.3413 62.0783 31.0425 61.7769 31.0425 61.4051C31.0425 61.0335 31.3413 60.7321 31.7099 60.7321C32.0785 60.7321 32.3776 61.0335 32.3776 61.4051Z" fill="#F9B105"/>
        <path opacity="0.5" d="M31.9097 61.1371C31.9097 61.3089 31.7715 61.4482 31.6013 61.4482C31.4309 61.4482 31.2927 61.3088 31.2927 61.1371C31.2927 60.9652 31.431 60.826 31.6013 60.826C31.7717 60.826 31.9097 60.9653 31.9097 61.1371Z" fill="white"/>
        <path d="M37.23 61.5069C37.23 62.0213 36.8164 62.4384 36.3062 62.4384C35.7959 62.4384 35.3824 62.0215 35.3824 61.5069C35.3824 60.9926 35.7958 60.5754 36.3062 60.5754C36.8164 60.5754 37.23 60.9926 37.23 61.5069Z" fill="#F29700"/>
        <path d="M36.8496 61.4051C36.8496 61.7769 36.5507 62.0783 36.1822 62.0783C35.8133 62.0783 35.5144 61.7769 35.5144 61.4051C35.5144 61.0335 35.8133 60.7321 36.1822 60.7321C36.5505 60.7321 36.8496 61.0335 36.8496 61.4051Z" fill="#F9B105"/>
        <path opacity="0.5" d="M36.3818 61.1371C36.3818 61.3089 36.2435 61.4482 36.0732 61.4482C35.9028 61.4482 35.7648 61.3088 35.7648 61.1371C35.7648 60.9652 35.9029 60.826 36.0732 60.826C36.2436 60.826 36.3818 60.9653 36.3818 61.1371Z" fill="white"/>
        <path d="M22.6145 0.409882L23.3006 1.81172L24.835 2.03654L23.7248 3.12752L23.9868 4.66853L22.6145 3.94117L21.2423 4.66853L21.5043 3.12752L20.394 2.03654L21.9286 1.81172L22.6145 0.409882Z" fill="#F9B105"/>
        <g opacity="0.4">
            <path d="M23.3006 1.81171L22.6145 0.409882V2.7639L23.3006 1.81171Z" fill="#D95915"/>
            <path d="M22.6145 2.76389L23.7248 3.12751L24.835 2.03653L22.6145 2.76389Z" fill="#D95915"/>
            <path d="M22.6145 3.94118L23.9869 4.66854L22.6145 2.76392V3.94118Z" fill="#D95915"/>
            <path d="M21.5043 3.12753L21.2424 4.66854L22.6146 2.76392L21.5043 3.12753Z" fill="#D95915"/>
            <path d="M22.6145 2.76389L21.9286 1.81171L20.394 2.03653L22.6145 2.76389Z" fill="#D95915"/>
        </g>
        <path opacity="0.5" d="M22.5936 0.498322L22.5555 2.12574L22.6029 2.71151L22.6013 2.34216L22.5936 0.498322Z" fill="white"/>
        <path opacity="0.5" d="M22.6819 2.71152L24.7475 2.04279L23.2441 2.48874L22.6819 2.71152Z" fill="white"/>
        <path opacity="0.5" d="M22.6631 2.79858L23.9518 4.57155L23.1304 3.36765L22.6631 2.79858Z" fill="white"/>
        <path opacity="0.5" d="M22.5915 2.82419L21.3428 4.59053L22.2208 3.42512L22.5915 2.82419Z" fill="white"/>
        <path opacity="0.5" d="M20.5151 2.09363L22.5492 2.76262L21.9615 2.62879L20.5151 2.09363Z" fill="white"/>
    </g>
    <defs>
        <clipPath id="clip0_28_9006">
            <rect width="45" height="65" fill="white"/>
        </clipPath>
    </defs>
</svg>
